# Blender 3.1.1
# www.blender.org
o Wet_floor_sign
v -0.155827 -0.010549 -0.164915
v -0.168156 -0.007246 -0.164915
v -0.000473 0.569240 -0.098599
v -0.012802 0.572543 -0.098599
v -0.000473 0.569240 0.098599
v -0.012802 0.572543 0.098599
v -0.155827 -0.010549 0.164915
v -0.168156 -0.007246 0.164915
v -0.168156 -0.007246 0.088923
v -0.155827 -0.010549 0.088923
v -0.168156 -0.007246 -0.088923
v -0.155827 -0.010549 -0.088923
v -0.007391 0.543420 -0.101473
v -0.019721 0.546724 -0.101473
v -0.019721 0.546724 0.101474
v -0.007391 0.543420 0.101474
v -0.019295 0.498997 -0.106741
v -0.031624 0.502301 -0.106741
v -0.031624 0.502301 0.106741
v -0.019295 0.498997 0.106741
v 0.000000 0.571005 0.000000
v -0.012329 0.574309 0.000000
v -0.019248 0.548489 0.000000
v -0.006918 0.545186 0.000000
v -0.150876 0.057245 -0.056864
v -0.151370 0.055403 -0.059780
v -0.152111 0.052637 -0.061764
v -0.150703 0.057890 -0.053444
v -0.139782 0.049333 -0.061764
v -0.139040 0.052100 -0.059780
v -0.138547 0.053941 -0.056864
v -0.138374 0.054587 -0.053444
v -0.150876 0.057245 0.056864
v -0.150703 0.057890 0.053444
v -0.151370 0.055403 0.059780
v -0.152111 0.052637 0.061764
v -0.139782 0.049333 0.061764
v -0.139040 0.052100 0.059780
v -0.138547 0.053941 0.056864
v -0.138374 0.054587 0.053444
v -0.031101 0.504252 -0.057950
v -0.029839 0.508963 -0.059975
v -0.031624 0.502301 -0.059968
v -0.031624 0.502301 -0.053070
v -0.019295 0.498997 -0.059968
v -0.017509 0.505660 -0.059975
v -0.018772 0.500948 -0.057950
v -0.019295 0.498997 -0.053070
v -0.031101 0.504252 0.057950
v -0.031624 0.502301 0.053070
v -0.031624 0.502301 0.059968
v -0.029839 0.508963 0.059975
v -0.019295 0.498997 0.059968
v -0.019295 0.498997 0.053070
v -0.018772 0.500948 0.057950
v -0.017509 0.505660 0.059975
v -0.019667 0.546924 0.053217
v -0.020218 0.544869 0.058034
v -0.021481 0.540153 0.060008
v -0.019721 0.546724 0.060016
v -0.007888 0.541566 0.058034
v -0.007338 0.543620 0.053217
v -0.007391 0.543420 0.060016
v -0.009152 0.536850 0.060008
v -0.020218 0.544869 -0.058034
v -0.019667 0.546924 -0.053216
v -0.019721 0.546724 -0.060015
v -0.021481 0.540153 -0.060008
v -0.007338 0.543620 -0.053216
v -0.007888 0.541566 -0.058034
v -0.009152 0.536850 -0.060008
v -0.007391 0.543420 -0.060015
v 0.155827 -0.010549 0.164915
v 0.168156 -0.007246 0.164915
v 0.000473 0.569240 0.098599
v 0.012802 0.572543 0.098599
v 0.000473 0.569240 -0.098599
v 0.012802 0.572543 -0.098599
v 0.155827 -0.010549 -0.164915
v 0.168156 -0.007246 -0.164915
v 0.168156 -0.007246 -0.088923
v 0.155827 -0.010549 -0.088923
v 0.168156 -0.007246 0.088923
v 0.155827 -0.010549 0.088923
v 0.007391 0.543420 0.101473
v 0.019721 0.546724 0.101473
v 0.019721 0.546724 -0.101473
v 0.007391 0.543420 -0.101473
v 0.019295 0.498997 0.106741
v 0.031624 0.502301 0.106741
v 0.031624 0.502301 -0.106741
v 0.019295 0.498997 -0.106741
v 0.000000 0.571005 0.000000
v 0.012329 0.574309 0.000000
v 0.019248 0.548489 0.000000
v 0.006918 0.545186 0.000000
v 0.150876 0.057245 0.056864
v 0.151370 0.055403 0.059780
v 0.152111 0.052637 0.061764
v 0.150703 0.057890 0.053444
v 0.139782 0.049333 0.061764
v 0.139040 0.052100 0.059780
v 0.138547 0.053941 0.056864
v 0.138374 0.054587 0.053444
v 0.150876 0.057245 -0.056864
v 0.150703 0.057890 -0.053444
v 0.151370 0.055403 -0.059780
v 0.152111 0.052637 -0.061764
v 0.139782 0.049333 -0.061764
v 0.139040 0.052100 -0.059780
v 0.138547 0.053941 -0.056864
v 0.138374 0.054587 -0.053444
v 0.031101 0.504252 0.057950
v 0.029839 0.508963 0.059975
v 0.031624 0.502301 0.059968
v 0.031624 0.502301 0.053070
v 0.019295 0.498997 0.059968
v 0.017509 0.505660 0.059975
v 0.018772 0.500948 0.057950
v 0.019295 0.498997 0.053070
v 0.031101 0.504252 -0.057950
v 0.031624 0.502301 -0.053070
v 0.031624 0.502301 -0.059968
v 0.029839 0.508963 -0.059975
v 0.019295 0.498997 -0.059968
v 0.019295 0.498997 -0.053070
v 0.018772 0.500948 -0.057950
v 0.017509 0.505660 -0.059975
v 0.019667 0.546924 -0.053216
v 0.020218 0.544869 -0.058034
v 0.021481 0.540153 -0.060008
v 0.019721 0.546724 -0.060015
v 0.007888 0.541566 -0.058034
v 0.007338 0.543620 -0.053216
v 0.007391 0.543420 -0.060015
v 0.009152 0.536850 -0.060008
v 0.020218 0.544869 0.058034
v 0.019667 0.546924 0.053217
v 0.019721 0.546724 0.060016
v 0.021481 0.540153 0.060008
v 0.007338 0.543620 0.053217
v 0.007888 0.541566 0.058034
v 0.009152 0.536850 0.060008
v 0.007391 0.543420 0.060016
vn 0.0288 0.1075 -0.9938
vn 0.0277 0.1033 -0.9943
vn 0.0277 0.1033 0.9943
vn 0.0288 0.1074 0.9938
vn -0.2588 -0.9659 -0.0000
vn -0.9659 0.2588 -0.0000
vn 0.9659 -0.2588 -0.0000
vn 0.2588 0.9659 -0.0000
vn 0.2588 0.9658 0.0185
vn -0.2588 -0.9659 -0.0060
vn -0.2588 -0.9659 0.0060
vn -0.2588 -0.9659 -0.0061
vn -0.1062 -0.3963 -0.9120
vn -0.1039 -0.3876 -0.9160
vn -0.1061 -0.3958 0.9122
vn -0.1039 -0.3876 0.9160
vn -0.1061 -0.3959 0.9121
vn 0.0285 0.1062 -0.9939
vn 0.0285 0.1062 0.9939
vn 0.0284 0.1059 -0.9940
vn 0.0284 0.1059 0.9940
vn 0.2588 0.9657 0.0202
vn 0.2588 0.9658 -0.0184
vn 0.2588 0.9658 0.0165
vn 0.0146 0.0546 -0.9984
vn -0.0138 -0.0516 -0.9986
vn -0.0132 -0.0491 -0.9987
vn -0.2582 -0.9639 -0.0645
vn -0.2583 -0.9639 -0.0644
vn -0.0138 -0.0516 0.9986
vn 0.0146 0.0546 0.9984
vn -0.0132 -0.0491 0.9987
vn 0.2588 0.9658 -0.0185
vn -0.2582 -0.9638 0.0660
vn -0.9659 0.2589 -0.0000
vn 0.9659 -0.2591 -0.0000
vn -0.2398 -0.8949 0.3765
vn -0.2588 -0.9659 0.0061
vn -0.1855 -0.6921 0.6975
vn -0.1855 -0.6921 -0.6975
vn -0.1059 -0.3954 -0.9124
vn -0.2398 -0.8949 -0.3765
vn 0.0139 0.0521 0.9985
vn 0.1831 0.6834 0.7067
vn 0.1831 0.6834 -0.7067
vn 0.2588 0.9658 -0.0182
vn 0.0140 0.0521 -0.9985
vn -0.1801 -0.6722 -0.7182
vn -0.1801 -0.6722 -0.7181
vn -0.2583 -0.9640 0.0629
vn -0.1801 -0.6722 0.7181
vn -0.1801 -0.6722 0.7182
vn 0.9898 -0.1409 0.0188
vn -0.0288 0.1075 0.9938
vn -0.0277 0.1033 0.9943
vn -0.0277 0.1033 -0.9943
vn -0.0288 0.1074 -0.9938
vn 0.2588 -0.9659 -0.0000
vn 0.9659 0.2588 -0.0000
vn -0.9659 -0.2588 -0.0000
vn -0.2588 0.9659 -0.0000
vn -0.2588 0.9658 -0.0185
vn 0.2588 -0.9659 0.0060
vn 0.2588 -0.9659 -0.0060
vn 0.2588 -0.9659 0.0061
vn 0.1062 -0.3963 0.9120
vn 0.1039 -0.3876 0.9160
vn 0.1060 -0.3958 -0.9122
vn 0.1039 -0.3876 -0.9160
vn 0.1061 -0.3959 -0.9121
vn -0.0285 0.1062 0.9939
vn -0.0285 0.1062 -0.9939
vn -0.0284 0.1059 0.9940
vn -0.0284 0.1059 -0.9940
vn -0.2588 0.9657 -0.0202
vn -0.2588 0.9658 0.0184
vn -0.2588 0.9658 -0.0165
vn -0.0146 0.0546 0.9984
vn 0.0138 -0.0516 0.9986
vn 0.0132 -0.0491 0.9987
vn 0.2582 -0.9638 0.0660
vn 0.0138 -0.0516 -0.9986
vn -0.0147 0.0546 -0.9984
vn 0.0132 -0.0491 -0.9987
vn -0.2588 0.9658 0.0185
vn 0.2583 -0.9639 -0.0645
vn 0.2583 -0.9639 -0.0644
vn -0.9660 -0.2586 -0.0000
vn 0.2398 -0.8949 -0.3765
vn 0.2588 -0.9659 -0.0061
vn 0.1855 -0.6921 -0.6975
vn 0.1855 -0.6921 0.6975
vn 0.1060 -0.3954 0.9124
vn 0.2398 -0.8949 0.3765
vn -0.0139 0.0521 -0.9985
vn -0.1831 0.6834 -0.7067
vn -0.1831 0.6834 0.7067
vn -0.2588 0.9658 0.0182
vn -0.0140 0.0521 0.9985
vn 0.1801 -0.6722 0.7182
vn 0.2583 -0.9640 0.0629
vn 0.1801 -0.6722 0.7181
vn 0.1801 -0.6722 -0.7181
vn 0.1801 -0.6722 -0.7182
vn -0.9944 -0.1040 -0.0189
vn -0.9659 -0.2589 -0.0000
vn 0.9922 -0.1228 -0.0189
vn -0.9781 0.2082 -0.0000
vn -0.9870 -0.1597 0.0188
vn 0.9811 0.1934 -0.0000
vt 0.003906 0.047423
vt 0.382837 0.106508
vt 0.504688 0.138303
vt 0.382837 0.134821
vt 0.003906 0.026485
vt 0.523239 0.138348
vt 0.219208 0.077331
vt 0.996065 0.047435
vt 0.410695 0.989073
vt 0.996065 0.026462
vt 0.219208 0.049017
vt 0.617230 0.989081
vt 0.003906 0.024882
vt 0.656705 0.077330
vt 0.131200 0.989035
vt 0.003906 0.003909
vt 0.656705 0.049017
vt 0.896724 0.989098
vt 0.381116 0.106508
vt 0.996094 0.024870
vt 0.037208 0.138319
vt 0.381116 0.134821
vt 0.990716 0.138335
vt 0.996094 0.003932
vt 0.679565 0.128967
vt 0.212553 0.134821
vt 0.883009 0.138335
vt 0.212553 0.106508
vt 0.679565 0.106289
vt 0.144914 0.138319
vt 0.551400 0.134821
vt 0.640418 0.078909
vt 0.630944 0.138346
vt 0.551400 0.106508
vt 0.640418 0.101588
vt 0.396981 0.138304
vt 0.951883 0.047432
vt 0.414769 0.951185
vt 0.951883 0.026464
vt 0.613156 0.951190
vt 0.048091 0.003911
vt 0.900798 0.951202
vt 0.048091 0.024879
vt 0.127126 0.951154
vt 0.875863 0.047437
vt 0.422235 0.885991
vt 0.875863 0.026459
vt 0.605690 0.885997
vt 0.908264 0.885996
vt 0.124112 0.003906
vt 0.124112 0.024884
vt 0.119660 0.885978
vt 0.437956 0.077325
vt 0.270948 0.991646
vt 0.437956 0.049020
vt 0.756977 0.991615
vt 0.756977 0.953728
vt 0.807446 0.049015
vt 0.807446 0.074922
vt 0.270948 0.953760
vt 0.917764 0.076500
vt 0.676383 0.232971
vt 0.513975 0.078909
vt 0.672249 0.230269
vt 0.925462 0.076500
vt 0.669437 0.226210
vt 0.520164 0.078909
vt 0.910060 0.076500
vt 0.681229 0.233917
vt 0.520164 0.101588
vt 0.358488 0.226175
vt 0.925462 0.104711
vt 0.513975 0.101588
vt 0.355676 0.230234
vt 0.917764 0.104711
vt 0.351543 0.232936
vt 0.910060 0.104711
vt 0.346696 0.233884
vt 0.666123 0.076500
vt 0.837571 0.232966
vt 0.673822 0.076500
vt 0.832725 0.233914
vt 0.658423 0.076500
vt 0.841705 0.230263
vt 0.553121 0.128967
vt 0.844517 0.226204
vt 0.559312 0.128967
vt 0.183407 0.226183
vt 0.559312 0.106289
vt 0.186219 0.230244
vt 0.553121 0.106289
vt 0.658423 0.104711
vt 0.190353 0.232944
vt 0.666123 0.104710
vt 0.673822 0.104711
vt 0.195200 0.233891
vt 0.220688 0.078910
vt 0.674843 0.888860
vt 0.980022 0.076498
vt 0.215685 0.078910
vt 0.671973 0.895779
vt 0.671983 0.885998
vt 0.232746 0.078910
vt 0.681760 0.885996
vt 0.355942 0.885991
vt 0.215685 0.104930
vt 0.980021 0.097317
vt 0.355952 0.895771
vt 0.220688 0.104930
vt 0.353082 0.888854
vt 0.232746 0.104930
vt 0.346165 0.885989
vt 0.507058 0.078910
vt 0.839111 0.888857
vt 0.495000 0.078910
vt 0.832194 0.885996
vt 0.841971 0.885999
vt 0.927353 0.098901
vt 0.512061 0.078910
vt 0.841981 0.895780
vt 0.185953 0.885979
vt 0.495000 0.104930
vt 0.195729 0.885980
vt 0.507058 0.104930
vt 0.188814 0.888841
vt 0.185944 0.895756
vt 0.927354 0.119720
vt 0.512061 0.104930
vt 0.678855 0.049015
vt 0.832402 0.951488
vt 0.667701 0.049015
vt 0.839230 0.948480
vt 0.658422 0.049015
vt 0.980021 0.098906
vt 0.842028 0.941555
vt 0.842038 0.951196
vt 0.667701 0.074922
vt 0.188694 0.948427
vt 0.195522 0.951447
vt 0.678855 0.074922
vt 0.185886 0.951154
vt 0.980022 0.119725
vt 0.658422 0.074922
vt 0.185895 0.941517
vt 0.947190 0.049015
vt 0.674724 0.948465
vt 0.681552 0.951472
vt 0.936035 0.049015
vt 0.671916 0.951182
vt 0.927354 0.076503
vt 0.956469 0.049015
vt 0.671926 0.941543
vt 0.936035 0.074922
vt 0.346373 0.951477
vt 0.947190 0.074922
vt 0.353202 0.948462
vt 0.927353 0.097322
vt 0.956469 0.074922
vt 0.356000 0.941547
vt 0.356010 0.951185
vt 0.382837 0.106508
vt 0.003906 0.047423
vt 0.504688 0.138303
vt 0.382837 0.134821
vt 0.003906 0.026485
vt 0.523239 0.138348
vt 0.996065 0.047435
vt 0.219208 0.077331
vt 0.410695 0.989073
vt 0.996065 0.026462
vt 0.219208 0.049017
vt 0.617230 0.989081
vt 0.003906 0.024882
vt 0.656705 0.077330
vt 0.131200 0.989035
vt 0.003906 0.003909
vt 0.656705 0.049017
vt 0.896724 0.989098
vt 0.381116 0.106508
vt 0.996094 0.024870
vt 0.037208 0.138319
vt 0.381116 0.134821
vt 0.990716 0.138335
vt 0.996094 0.003932
vt 0.679565 0.128967
vt 0.212553 0.134821
vt 0.883009 0.138335
vt 0.212553 0.106508
vt 0.679565 0.106289
vt 0.144914 0.138319
vt 0.551400 0.134821
vt 0.640418 0.078909
vt 0.630944 0.138346
vt 0.551400 0.106508
vt 0.640418 0.101588
vt 0.396981 0.138304
vt 0.951883 0.047432
vt 0.414769 0.951185
vt 0.951883 0.026464
vt 0.613156 0.951190
vt 0.048091 0.003911
vt 0.900798 0.951202
vt 0.048091 0.024879
vt 0.127126 0.951154
vt 0.875863 0.047437
vt 0.422235 0.885991
vt 0.875863 0.026459
vt 0.605690 0.885997
vt 0.908264 0.885996
vt 0.124112 0.003906
vt 0.124112 0.024884
vt 0.119660 0.885978
vt 0.437956 0.077325
vt 0.270948 0.991646
vt 0.437956 0.049020
vt 0.756977 0.991615
vt 0.756977 0.953728
vt 0.807446 0.049015
vt 0.807446 0.074922
vt 0.270948 0.953760
vt 0.917764 0.076500
vt 0.676383 0.232971
vt 0.513975 0.078909
vt 0.672249 0.230269
vt 0.925462 0.076500
vt 0.669437 0.226210
vt 0.520164 0.078909
vt 0.910060 0.076500
vt 0.681229 0.233917
vt 0.520164 0.101588
vt 0.358488 0.226175
vt 0.925462 0.104711
vt 0.513975 0.101588
vt 0.355676 0.230234
vt 0.917764 0.104711
vt 0.351543 0.232936
vt 0.910060 0.104711
vt 0.346696 0.233884
vt 0.666123 0.076500
vt 0.837571 0.232966
vt 0.673822 0.076500
vt 0.832725 0.233914
vt 0.658423 0.076500
vt 0.841705 0.230263
vt 0.553121 0.128967
vt 0.844517 0.226204
vt 0.559312 0.128967
vt 0.183407 0.226183
vt 0.559312 0.106289
vt 0.186219 0.230244
vt 0.553121 0.106289
vt 0.658423 0.104711
vt 0.190353 0.232944
vt 0.666123 0.104710
vt 0.673822 0.104711
vt 0.195200 0.233891
vt 0.220688 0.078910
vt 0.674843 0.888860
vt 0.980022 0.076498
vt 0.215685 0.078910
vt 0.671973 0.895779
vt 0.671983 0.885998
vt 0.232746 0.078910
vt 0.681760 0.885996
vt 0.355942 0.885991
vt 0.215685 0.104930
vt 0.980021 0.097317
vt 0.355952 0.895771
vt 0.220688 0.104930
vt 0.353082 0.888854
vt 0.232746 0.104930
vt 0.346165 0.885989
vt 0.507058 0.078910
vt 0.839111 0.888857
vt 0.495000 0.078910
vt 0.832194 0.885996
vt 0.841971 0.885999
vt 0.927353 0.098901
vt 0.512061 0.078910
vt 0.841981 0.895780
vt 0.185953 0.885979
vt 0.495000 0.104930
vt 0.195729 0.885980
vt 0.507058 0.104930
vt 0.188814 0.888841
vt 0.185944 0.895756
vt 0.927354 0.119720
vt 0.512061 0.104930
vt 0.678855 0.049015
vt 0.832402 0.951488
vt 0.667701 0.049015
vt 0.839230 0.948480
vt 0.658422 0.049015
vt 0.980021 0.098906
vt 0.842028 0.941555
vt 0.842038 0.951196
vt 0.667701 0.074922
vt 0.188694 0.948427
vt 0.195522 0.951447
vt 0.678855 0.074922
vt 0.185886 0.951154
vt 0.980022 0.119725
vt 0.658422 0.074922
vt 0.185895 0.941517
vt 0.947190 0.049015
vt 0.674724 0.948465
vt 0.681552 0.951472
vt 0.936035 0.049015
vt 0.671916 0.951182
vt 0.927354 0.076503
vt 0.956469 0.049015
vt 0.671926 0.941543
vt 0.936035 0.074922
vt 0.346373 0.951477
vt 0.947190 0.074922
vt 0.353202 0.948462
vt 0.927353 0.097322
vt 0.956469 0.074922
vt 0.356000 0.941547
vt 0.356010 0.951185
s 1
f 14/39/1 3/8/2 13/37/1
f 6/16/3 16/43/4 5/13/3
f 8/22/5 10/28/5 7/19/5
f 6/18/6 60/136/6 15/42/6
f 16/44/7 63/141/7 5/15/7
f 14/40/6 67/149/6 4/12/6
f 11/31/5 1/2/5 12/34/5
f 3/9/7 72/160/7 13/38/7
f 21/53/8 6/17/9 5/14/9
f 23/57/6 57/130/6 6/18/6
f 34/81/10 32/77/11 40/95/12
f 63/141/7 24/60/7 21/54/7
f 36/86/6 8/23/6 35/84/6
f 36/87/13 10/29/14 9/25/14
f 27/67/15 12/35/16 29/70/17
f 17/45/18 14/39/1 13/37/1
f 18/48/6 43/102/6 42/101/6
f 15/42/6 60/136/6 59/135/6
f 15/41/4 20/51/19 16/43/4
f 56/126/7 16/44/7 20/52/7
f 13/38/7 72/160/7 71/159/7
f 2/5/20 17/45/18 1/1/20
f 19/49/6 33/80/6 8/23/6
f 19/50/19 7/20/21 20/51/19
f 39/93/7 20/52/7 7/21/7
f 17/46/7 31/76/7 1/3/7
f 44/103/22 54/122/23 48/111/24
f 56/127/25 59/134/26 64/142/27
f 57/129/28 24/59/5 62/140/29
f 68/150/30 46/107/31 71/157/32
f 4/11/33 21/53/8 3/7/33
f 67/149/6 66/147/6 22/56/6
f 23/58/5 69/153/34 24/59/5
f 24/60/7 72/160/7 3/9/7
f 2/6/6 27/66/6 26/64/35
f 7/21/7 37/88/7 38/90/36
f 25/61/37 32/77/11 28/68/38
f 25/61/37 30/72/39 31/75/37
f 27/67/15 30/73/39 26/63/39
f 35/85/40 37/89/41 36/87/13
f 33/79/42 38/92/40 35/83/40
f 34/81/10 39/94/42 33/79/42
f 40/96/7 53/121/7 39/93/7
f 50/116/6 43/102/6 34/82/6
f 42/100/43 47/109/44 46/106/31
f 41/97/44 48/111/24 47/109/44
f 49/113/45 54/122/23 50/115/46
f 52/119/47 55/124/45 49/113/45
f 58/131/48 64/143/27 59/133/26
f 57/129/28 61/137/49 58/131/48
f 66/148/50 70/155/51 69/153/34
f 65/145/52 71/158/32 70/155/51
f 43/102/6 41/98/6 42/101/6
f 45/105/7 47/110/7 48/112/7
f 51/117/6 49/114/6 50/116/6
f 53/121/7 55/125/7 56/126/7
f 60/136/6 58/132/6 59/135/6
f 63/141/7 61/138/7 62/139/53
f 67/149/6 65/146/6 66/147/6
f 72/160/7 70/156/7 71/159/7
f 19/49/6 52/120/6 51/117/6
f 15/42/6 52/120/6 19/49/6
f 14/40/6 68/152/6 67/149/6
f 42/101/6 14/40/6 18/48/6
f 16/44/7 64/144/7 63/141/7
f 20/52/7 53/121/7 56/126/7
f 17/46/7 46/108/7 45/105/7
f 13/38/7 46/108/7 17/46/7
f 45/105/7 32/78/7 31/76/7
f 48/112/7 40/96/7 32/78/7
f 1/3/7 30/74/7 29/71/7
f 25/62/6 18/48/6 2/6/6
f 85/197/54 76/170/55 75/167/55
f 78/176/56 88/203/57 77/173/56
f 80/182/58 82/188/58 79/179/58
f 78/178/59 132/296/59 87/202/59
f 88/204/60 135/301/60 77/175/60
f 86/200/59 139/309/59 76/172/59
f 83/191/58 73/161/58 84/194/58
f 75/169/60 144/320/60 85/198/60
f 94/215/61 77/174/62 93/213/61
f 95/217/59 129/290/59 78/178/59
f 106/241/63 104/237/64 112/255/65
f 135/301/60 96/220/60 93/214/60
f 108/246/59 80/183/59 107/244/59
f 108/247/66 82/189/67 81/185/67
f 99/227/68 84/195/69 101/230/70
f 89/205/71 86/199/54 85/197/54
f 90/208/59 115/262/59 114/261/59
f 87/202/59 132/296/59 131/295/59
f 87/201/57 92/211/72 88/203/57
f 128/286/60 88/204/60 92/212/60
f 85/198/60 144/320/60 143/319/60
f 73/162/73 90/207/71 89/205/71
f 91/209/59 105/240/59 80/183/59
f 92/211/72 80/184/74 79/180/74
f 111/253/60 92/212/60 79/181/60
f 89/206/60 103/236/60 73/163/60
f 116/263/75 126/282/76 120/271/77
f 128/287/78 131/294/79 136/302/80
f 134/300/81 95/218/58 96/219/58
f 140/310/82 118/267/83 143/317/84
f 76/171/85 93/213/61 75/168/85
f 139/309/59 138/307/59 94/216/59
f 96/219/58 138/308/86 141/313/87
f 96/220/60 144/320/60 75/169/60
f 74/166/59 99/226/59 98/224/59
f 79/181/60 109/248/60 110/250/88
f 97/221/89 104/237/64 100/228/90
f 98/225/91 103/235/89 97/221/89
f 99/227/68 102/233/91 98/223/91
f 107/245/92 109/249/93 108/247/66
f 105/239/94 110/252/92 107/243/92
f 106/241/63 111/254/94 105/239/94
f 112/256/60 125/281/60 111/253/60
f 122/276/59 115/262/59 106/242/59
f 114/260/95 119/269/96 118/266/83
f 113/257/96 120/271/77 119/269/96
f 121/273/97 126/282/76 122/275/98
f 124/279/99 127/284/97 121/273/97
f 130/291/100 136/303/80 131/293/79
f 129/289/101 133/297/102 130/291/100
f 138/308/86 142/315/103 141/313/87
f 137/305/104 143/318/84 142/315/103
f 115/262/59 113/258/59 114/261/59
f 117/265/60 119/270/60 120/272/60
f 123/277/59 121/274/59 122/276/59
f 125/281/60 127/285/60 128/286/60
f 132/296/59 130/292/59 131/295/59
f 135/301/60 133/298/60 134/299/105
f 139/309/59 137/306/59 138/307/59
f 144/320/60 142/316/60 143/319/60
f 91/209/59 124/280/59 123/277/59
f 87/202/59 124/280/59 91/209/59
f 86/200/59 140/312/59 139/309/59
f 114/261/59 86/200/59 90/208/59
f 88/204/60 136/304/60 135/301/60
f 92/212/60 125/281/60 128/286/60
f 89/206/60 118/268/60 117/265/60
f 85/198/60 118/268/60 89/206/60
f 117/265/60 104/238/60 103/236/60
f 120/272/60 112/256/60 104/238/60
f 73/163/60 102/234/106 101/231/60
f 97/222/59 90/208/59 74/166/59
f 14/39/1 4/10/2 3/8/2
f 6/16/3 15/41/4 16/43/4
f 8/22/5 9/26/5 10/28/5
f 11/31/5 2/4/5 1/2/5
f 21/53/8 22/55/8 6/17/9
f 6/18/6 22/56/6 23/57/6
f 57/130/6 60/136/6 6/18/6
f 34/81/10 28/68/38 32/77/11
f 21/54/7 5/15/7 63/141/7
f 63/141/7 62/139/53 24/60/7
f 36/86/6 9/27/6 8/23/6
f 8/23/6 33/80/6 35/84/6
f 36/87/13 37/89/41 10/29/14
f 27/67/15 11/32/16 12/35/16
f 17/45/18 18/47/18 14/39/1
f 15/41/4 19/50/19 20/51/19
f 56/126/7 64/144/7 16/44/7
f 2/5/20 18/47/18 17/45/18
f 19/49/6 51/117/6 33/80/6
f 19/50/19 8/24/21 7/20/21
f 39/93/7 53/121/7 20/52/7
f 17/46/7 45/105/7 31/76/7
f 44/103/22 50/115/46 54/122/23
f 56/127/25 52/118/47 59/134/26
f 57/129/28 23/58/5 24/59/5
f 68/150/30 42/99/43 46/107/31
f 4/11/33 22/55/8 21/53/8
f 22/56/6 4/12/6 67/149/6
f 66/147/6 23/57/6 22/56/6
f 23/58/5 66/148/50 69/153/34
f 3/9/7 21/54/7 24/60/7
f 24/60/7 69/154/107 72/160/7
f 2/6/6 11/33/6 27/66/6
f 26/64/35 25/62/6 2/6/6
f 7/21/7 10/30/7 37/88/7
f 38/90/36 39/93/7 7/21/7
f 25/61/37 31/75/37 32/77/11
f 25/61/37 26/65/39 30/72/39
f 27/67/15 29/70/17 30/73/39
f 35/85/40 38/91/40 37/89/41
f 33/79/42 39/94/42 38/92/40
f 34/81/10 40/95/12 39/94/42
f 40/96/7 54/123/7 53/121/7
f 33/80/6 51/117/6 50/116/6
f 50/116/6 44/104/108 43/102/6
f 43/102/6 25/62/6 28/69/6
f 34/82/6 33/80/6 50/116/6
f 43/102/6 28/69/6 34/82/6
f 42/100/43 41/97/44 47/109/44
f 41/97/44 44/103/22 48/111/24
f 49/113/45 55/124/45 54/122/23
f 52/119/47 56/128/25 55/124/45
f 58/131/48 61/137/49 64/143/27
f 57/129/28 62/140/29 61/137/49
f 66/148/50 65/145/52 70/155/51
f 65/145/52 68/151/30 71/158/32
f 43/102/6 44/104/108 41/98/6
f 45/105/7 46/108/7 47/110/7
f 51/117/6 52/120/6 49/114/6
f 53/121/7 54/123/7 55/125/7
f 60/136/6 57/130/6 58/132/6
f 63/141/7 64/144/7 61/138/7
f 67/149/6 68/152/6 65/146/6
f 72/160/7 69/154/107 70/156/7
f 15/42/6 59/135/6 52/120/6
f 42/101/6 68/152/6 14/40/6
f 13/38/7 71/159/7 46/108/7
f 45/105/7 48/112/7 32/78/7
f 48/112/7 54/123/7 40/96/7
f 1/3/7 31/76/7 30/74/7
f 29/71/7 12/36/7 1/3/7
f 25/62/6 43/102/6 18/48/6
f 85/197/54 86/199/54 76/170/55
f 78/176/56 87/201/57 88/203/57
f 80/182/58 81/186/58 82/188/58
f 83/191/58 74/164/58 73/161/58
f 94/215/61 78/177/62 77/174/62
f 78/178/59 94/216/59 95/217/59
f 129/290/59 132/296/59 78/178/59
f 106/241/63 100/228/90 104/237/64
f 93/214/60 77/175/60 135/301/60
f 135/301/60 134/299/105 96/220/60
f 108/246/59 81/187/59 80/183/59
f 80/183/59 105/240/59 107/244/59
f 108/247/66 109/249/93 82/189/67
f 99/227/68 83/192/69 84/195/69
f 89/205/71 90/207/71 86/199/54
f 87/201/57 91/210/72 92/211/72
f 128/286/60 136/304/60 88/204/60
f 73/162/73 74/165/73 90/207/71
f 91/209/59 123/277/59 105/240/59
f 92/211/72 91/210/72 80/184/74
f 111/253/60 125/281/60 92/212/60
f 89/206/60 117/265/60 103/236/60
f 116/263/75 122/275/98 126/282/76
f 128/287/78 124/278/99 131/294/79
f 134/300/81 129/289/101 95/218/58
f 140/310/82 114/259/95 118/267/83
f 76/171/85 94/215/61 93/213/61
f 94/216/59 76/172/59 139/309/59
f 138/307/59 95/217/59 94/216/59
f 96/219/58 95/218/58 138/308/86
f 75/169/60 93/214/60 96/220/60
f 96/220/60 141/314/109 144/320/60
f 74/166/59 83/193/59 99/226/59
f 98/224/59 97/222/59 74/166/59
f 79/181/60 82/190/60 109/248/60
f 110/250/88 111/253/60 79/181/60
f 97/221/89 103/235/89 104/237/64
f 98/225/91 102/232/91 103/235/89
f 99/227/68 101/230/70 102/233/91
f 107/245/92 110/251/92 109/249/93
f 105/239/94 111/254/94 110/252/92
f 106/241/63 112/255/65 111/254/94
f 112/256/60 126/283/60 125/281/60
f 105/240/59 123/277/59 122/276/59
f 122/276/59 116/264/110 115/262/59
f 115/262/59 97/222/59 100/229/59
f 106/242/59 105/240/59 122/276/59
f 115/262/59 100/229/59 106/242/59
f 114/260/95 113/257/96 119/269/96
f 113/257/96 116/263/75 120/271/77
f 121/273/97 127/284/97 126/282/76
f 124/279/99 128/288/78 127/284/97
f 130/291/100 133/297/102 136/303/80
f 129/289/101 134/300/81 133/297/102
f 138/308/86 137/305/104 142/315/103
f 137/305/104 140/311/82 143/318/84
f 115/262/59 116/264/110 113/258/59
f 117/265/60 118/268/60 119/270/60
f 123/277/59 124/280/59 121/274/59
f 125/281/60 126/283/60 127/285/60
f 132/296/59 129/290/59 130/292/59
f 135/301/60 136/304/60 133/298/60
f 139/309/59 140/312/59 137/306/59
f 144/320/60 141/314/109 142/316/60
f 87/202/59 131/295/59 124/280/59
f 114/261/59 140/312/59 86/200/59
f 85/198/60 143/319/60 118/268/60
f 117/265/60 120/272/60 104/238/60
f 120/272/60 126/283/60 112/256/60
f 73/163/60 103/236/60 102/234/106
f 101/231/60 84/196/60 73/163/60
f 97/222/59 115/262/59 90/208/59
