# Blender 3.5.0
# www.blender.org
mtllib Caffe.mtl
o Chalkboard_sign_VC2_low1
v 0.062694 0.001507 0.061787
v 0.073494 0.001507 0.061787
v 0.073494 0.358004 0.011684
v 0.062694 0.358004 0.011684
v 0.062694 0.358004 0.011684
v 0.073494 0.358004 0.011684
v 0.073494 0.356499 0.000990
v 0.062694 0.356499 0.000990
v 0.062694 0.356499 0.000990
v 0.073494 0.356499 0.000990
v 0.073494 0.000004 0.051091
v 0.062694 0.000004 0.051091
v 0.062694 0.000004 0.051091
v 0.073494 0.000004 0.051091
v 0.073494 0.001507 0.061787
v 0.062694 0.001507 0.061787
v 0.073494 0.001507 0.061787
v 0.073494 0.000004 0.051091
v 0.073494 0.356499 0.000990
v 0.073494 0.358004 0.011684
v 0.062694 0.000004 0.051091
v 0.062694 0.001507 0.061787
v 0.062694 0.358004 0.011684
v 0.062694 0.356499 0.000990
v -0.066906 0.347308 0.013187
v 0.062694 0.347308 0.013187
v 0.062694 0.358004 0.011684
v -0.066906 0.358004 0.011684
v -0.066906 0.358004 0.011684
v 0.062694 0.358004 0.011684
v 0.062694 0.356499 0.000990
v -0.066906 0.356499 0.000990
v -0.066906 0.356499 0.000990
v 0.062694 0.356499 0.000990
v 0.062694 0.345805 0.002493
v -0.066906 0.345805 0.002493
v -0.066906 0.345805 0.002493
v 0.062694 0.345805 0.002493
v 0.062694 0.347308 0.013187
v -0.066906 0.347308 0.013187
v -0.077706 0.001507 0.061787
v -0.066906 0.001507 0.061787
v -0.066906 0.358004 0.011684
v -0.077706 0.358004 0.011684
v -0.077706 0.358004 0.011684
v -0.066906 0.358004 0.011684
v -0.066906 0.356499 0.000990
v -0.077706 0.356499 0.000990
v -0.077706 0.356499 0.000990
v -0.066906 0.356499 0.000990
v -0.066906 0.000004 0.051091
v -0.077706 0.000004 0.051091
v -0.077706 0.000004 0.051091
v -0.066906 0.000004 0.051091
v -0.066906 0.001507 0.061787
v -0.077706 0.001507 0.061787
v -0.066906 0.001507 0.061787
v -0.066906 0.000004 0.051091
v -0.066906 0.356499 0.000990
v -0.066906 0.358004 0.011684
v -0.077706 0.000004 0.051091
v -0.077706 0.001507 0.061787
v -0.077706 0.358004 0.011684
v -0.077706 0.356499 0.000990
v -0.066906 0.061070 0.049781
v 0.062694 0.061070 0.049781
v 0.062694 0.346808 0.009623
v -0.066906 0.346808 0.009623
v -0.066906 0.346306 0.006057
v 0.062694 0.346306 0.006057
v 0.062694 0.060568 0.046215
v -0.066906 0.060568 0.046215
v -0.066906 0.050877 0.054848
v 0.062694 0.050877 0.054848
v 0.062694 0.061571 0.053345
v -0.066906 0.061571 0.053345
v -0.066906 0.061571 0.053345
v 0.062694 0.061571 0.053345
v 0.062694 0.060068 0.042649
v -0.066906 0.060068 0.042649
v -0.066906 0.060068 0.042649
v 0.062694 0.060068 0.042649
v 0.062694 0.049374 0.044154
v -0.066906 0.049374 0.044154
v -0.066906 0.049374 0.044154
v 0.062694 0.049374 0.044154
v 0.062694 0.050877 0.054848
v -0.066906 0.050877 0.054848
v 0.060268 0.357766 -0.000940
v 0.060268 0.356906 -0.001163
v 0.036322 0.356906 -0.001163
v 0.036322 0.357766 -0.000940
v 0.060268 0.356139 -0.000711
v 0.036322 0.356139 -0.000711
v 0.060268 0.355918 0.000149
v 0.036322 0.355918 0.000149
v 0.060268 0.356368 0.000916
v 0.036322 0.356368 0.000916
v 0.060268 0.357230 0.001138
v 0.036322 0.357230 0.001138
v 0.060268 0.357995 0.000688
v 0.036322 0.357995 0.000688
v 0.060268 0.358218 -0.000175
v 0.036322 0.358218 -0.000175
v 0.060268 0.357766 -0.000940
v 0.036322 0.357766 -0.000940
v 0.060268 0.356906 -0.001163
v 0.060268 0.357766 -0.000940
v 0.060268 0.357068 -0.000013
v 0.060268 0.356139 -0.000711
v 0.060268 0.355918 0.000149
v 0.060268 0.356368 0.000916
v 0.060268 0.357230 0.001138
v 0.060268 0.357995 0.000688
v 0.060268 0.358218 -0.000175
v 0.036322 0.357068 -0.000013
v 0.036322 0.357766 -0.000940
v 0.036322 0.356906 -0.001163
v 0.036322 0.356139 -0.000711
v 0.036322 0.355918 0.000149
v 0.036322 0.356368 0.000916
v 0.036322 0.357230 0.001138
v 0.036322 0.357995 0.000688
v 0.036322 0.358218 -0.000175
v -0.066906 0.049370 -0.044154
v 0.062694 0.049370 -0.044154
v 0.062694 0.060064 -0.042649
v -0.066906 0.060064 -0.042649
v -0.066906 0.060064 -0.042649
v 0.062694 0.060064 -0.042649
v 0.062694 0.061567 -0.053345
v -0.066906 0.061567 -0.053345
v -0.066906 0.061567 -0.053345
v 0.062694 0.061567 -0.053345
v 0.062694 0.050873 -0.054848
v -0.066906 0.050873 -0.054848
v -0.066906 0.050873 -0.054848
v 0.062694 0.050873 -0.054848
v 0.062694 0.049370 -0.044154
v -0.066906 0.049370 -0.044154
v 0.062694 -0.000000 -0.051091
v 0.073494 -0.000000 -0.051091
v 0.073494 0.356497 -0.000990
v 0.062694 0.356497 -0.000990
v 0.062694 0.356497 -0.000990
v 0.073494 0.356497 -0.000990
v 0.073494 0.358000 -0.011684
v 0.062694 0.358000 -0.011684
v 0.062694 0.358000 -0.011684
v 0.073494 0.358000 -0.011684
v 0.073494 0.001503 -0.061787
v 0.062694 0.001503 -0.061787
v 0.062694 0.001503 -0.061787
v 0.073494 0.001503 -0.061787
v 0.073494 -0.000000 -0.051091
v 0.062694 -0.000000 -0.051091
v 0.073494 -0.000000 -0.051091
v 0.073494 0.001503 -0.061787
v 0.073494 0.358000 -0.011684
v 0.073494 0.356497 -0.000990
v 0.062694 0.001503 -0.061787
v 0.062694 -0.000000 -0.051091
v 0.062694 0.356497 -0.000990
v 0.062694 0.358000 -0.011684
v -0.077706 -0.000000 -0.051091
v -0.066906 -0.000000 -0.051091
v -0.066906 0.356497 -0.000990
v -0.077706 0.356497 -0.000990
v -0.077706 0.356497 -0.000990
v -0.066906 0.356497 -0.000990
v -0.066906 0.358000 -0.011684
v -0.077706 0.358000 -0.011684
v -0.077706 0.358000 -0.011684
v -0.066906 0.358000 -0.011684
v -0.066906 0.001503 -0.061787
v -0.077706 0.001503 -0.061787
v -0.077706 0.001503 -0.061787
v -0.066906 0.001503 -0.061787
v -0.066906 -0.000000 -0.051091
v -0.077706 -0.000000 -0.051091
v -0.066906 -0.000000 -0.051091
v -0.066906 0.001503 -0.061787
v -0.066906 0.358000 -0.011684
v -0.066906 0.356497 -0.000990
v -0.077706 0.001503 -0.061787
v -0.077706 -0.000000 -0.051091
v -0.077706 0.356497 -0.000990
v -0.077706 0.358000 -0.011684
v -0.066906 0.345802 -0.002493
v 0.062694 0.345802 -0.002493
v 0.062694 0.356497 -0.000990
v -0.066906 0.356497 -0.000990
v -0.066906 0.356497 -0.000990
v 0.062694 0.356497 -0.000990
v 0.062694 0.358000 -0.011684
v -0.066906 0.358000 -0.011684
v -0.066906 0.358000 -0.011684
v 0.062694 0.358000 -0.011684
v 0.062694 0.347305 -0.013187
v -0.066906 0.347305 -0.013187
v -0.066906 0.347305 -0.013187
v 0.062694 0.347305 -0.013187
v 0.062694 0.345802 -0.002493
v -0.066906 0.345802 -0.002493
v -0.066906 0.060566 -0.046215
v 0.062694 0.060566 -0.046215
v 0.062694 0.346302 -0.006057
v -0.066906 0.346302 -0.006057
v -0.066906 0.346804 -0.009623
v 0.062694 0.346804 -0.009623
v 0.062694 0.061067 -0.049781
v -0.066906 0.061067 -0.049781
v -0.040225 0.357995 -0.000711
v -0.040225 0.357230 -0.001163
v -0.064170 0.357230 -0.001163
v -0.064170 0.357995 -0.000711
v -0.040225 0.356368 -0.000940
v -0.064170 0.356368 -0.000940
v -0.040225 0.355918 -0.000175
v -0.064170 0.355918 -0.000175
v -0.040225 0.356139 0.000688
v -0.064170 0.356139 0.000688
v -0.040225 0.356906 0.001138
v -0.064170 0.356906 0.001138
v -0.040225 0.357766 0.000916
v -0.064170 0.357766 0.000916
v -0.040225 0.358218 0.000149
v -0.064170 0.358218 0.000149
v -0.040225 0.357995 -0.000711
v -0.064170 0.357995 -0.000711
v -0.040225 0.357230 -0.001163
v -0.040225 0.357995 -0.000711
v -0.040225 0.357068 -0.000013
v -0.040225 0.356368 -0.000940
v -0.040225 0.355918 -0.000175
v -0.040225 0.356139 0.000688
v -0.040225 0.356906 0.001138
v -0.040225 0.357766 0.000916
v -0.040225 0.358218 0.000149
v -0.064170 0.357068 -0.000013
v -0.064170 0.357995 -0.000711
v -0.064170 0.357230 -0.001163
v -0.064170 0.356368 -0.000940
v -0.064170 0.355918 -0.000175
v -0.064170 0.356139 0.000688
v -0.064170 0.356906 0.001138
v -0.064170 0.357766 0.000916
v -0.064170 0.358218 0.000149
vn -0.0000 0.1392 0.9903
vn -0.0000 0.9903 -0.1390
vn -0.0000 0.9903 -0.1389
vn -0.0000 -0.1392 -0.9903
vn -0.0000 -0.9903 0.1392
vn 1.0000 -0.0000 -0.0000
vn -1.0000 -0.0000 -0.0000
vn -0.0000 0.9902 -0.1393
vn -0.0000 0.9903 -0.1392
vn -0.0000 -0.1389 -0.9903
vn -0.0000 0.6018 -0.7986
vn -0.0000 -0.1393 -0.9902
vn -0.0000 -0.7987 -0.6017
vn -0.0000 -0.7986 -0.6018
vn -0.0000 -0.9903 0.1393
vn -0.0000 -0.9902 0.1394
vn -0.0000 -0.6018 0.7987
vn -0.0000 0.1394 0.9902
vn -0.0000 0.1397 0.9902
vn -0.0000 0.7988 0.6016
vn -0.0000 0.7984 0.6022
vn -0.0000 0.9903 -0.1393
vn -0.0000 -0.1389 0.9903
vn -0.0000 0.9903 0.1392
vn -0.0000 0.1392 -0.9903
vn -0.0000 -0.9903 -0.1392
vn -0.0000 -0.1392 0.9903
vn -0.0000 0.7986 -0.6018
vn -0.0000 0.1396 -0.9902
vn -0.0000 -0.6018 -0.7987
vn -0.0000 -0.9902 -0.1397
vn -0.0000 -0.9903 -0.1391
vn -0.0000 -0.7987 0.6018
vn -0.0000 -0.7986 0.6018
vn -0.0000 -0.1390 0.9903
vn -0.0000 -0.1393 0.9903
vn -0.0000 0.6019 0.7986
vn -0.0000 0.9903 0.1391
vn -0.0000 0.9902 0.1394
vn 0.0001 0.7986 -0.6018
vt 0.685058 0.745268
vt 0.685058 0.765732
vt 0.002930 0.765732
vt 0.002930 0.745268
vt 0.963569 0.671032
vt 0.963569 0.650568
vt 0.984032 0.650568
vt 0.984032 0.671032
vt 0.002930 0.806660
vt 0.002930 0.786196
vt 0.685058 0.786196
vt 0.685058 0.806660
vt 0.963569 0.646758
vt 0.963569 0.626295
vt 0.984032 0.626295
vt 0.984032 0.646758
vt 0.685058 0.765732
vt 0.685058 0.786196
vt 0.002930 0.786196
vt 0.002930 0.765732
vt 0.685058 0.724804
vt 0.685058 0.745268
vt 0.002930 0.745268
vt 0.002930 0.724804
vt 0.689282 0.659603
vt 0.934848 0.659603
vt 0.934848 0.680067
vt 0.689282 0.680067
vt 0.689282 0.680067
vt 0.934848 0.680067
vt 0.934848 0.700531
vt 0.689282 0.700531
vt 0.689282 0.700531
vt 0.934848 0.700531
vt 0.934848 0.720995
vt 0.689282 0.720995
vt 0.689282 0.639139
vt 0.934848 0.639139
vt 0.934848 0.659603
vt 0.689282 0.659603
vt 0.002930 0.680067
vt 0.002930 0.659603
vt 0.685058 0.659603
vt 0.685058 0.680067
vt 0.938807 0.626937
vt 0.959270 0.626937
vt 0.959270 0.647401
vt 0.938807 0.647401
vt 0.685058 0.700531
vt 0.685058 0.720995
vt 0.002930 0.720995
vt 0.002930 0.700531
vt 0.938807 0.651210
vt 0.959270 0.651210
vt 0.959270 0.671674
vt 0.938807 0.671674
vt 0.002930 0.659603
vt 0.002930 0.639139
vt 0.685058 0.639139
vt 0.685058 0.659603
vt 0.002930 0.700531
vt 0.002930 0.680067
vt 0.685058 0.680067
vt 0.685058 0.700531
vt 0.751504 0.002930
vt 0.997070 0.002930
vt 0.997070 0.549665
vt 0.751504 0.549665
vt 0.002930 0.002930
vt 0.248496 0.002930
vt 0.248496 0.549665
vt 0.002930 0.549665
vt 0.065152 0.830933
vt 0.310718 0.830933
vt 0.310718 0.851397
vt 0.065152 0.851397
vt 0.065152 0.851397
vt 0.310718 0.851397
vt 0.310718 0.871861
vt 0.065152 0.871861
vt 0.065152 0.871861
vt 0.310718 0.871861
vt 0.310718 0.892325
vt 0.065152 0.892325
vt 0.065152 0.810469
vt 0.310718 0.810469
vt 0.310718 0.830933
vt 0.065152 0.830933
vt 0.938807 0.553479
vt 0.940491 0.553479
vt 0.940508 0.598853
vt 0.938824 0.598854
vt 0.942175 0.553478
vt 0.942192 0.598852
vt 0.943859 0.553478
vt 0.943876 0.598852
vt 0.945544 0.553477
vt 0.945561 0.598851
vt 0.947228 0.553476
vt 0.947245 0.598851
vt 0.948912 0.553476
vt 0.948929 0.598850
vt 0.950596 0.553475
vt 0.950613 0.598849
vt 0.952281 0.553474
vt 0.952298 0.598849
vt 0.966444 0.618412
vt 0.967635 0.619603
vt 0.965602 0.620445
vt 0.964759 0.618412
vt 0.963569 0.619603
vt 0.963569 0.621287
vt 0.964760 0.622478
vt 0.966444 0.622478
vt 0.967635 0.621287
vt 0.990364 0.628328
vt 0.991206 0.630361
vt 0.989522 0.630361
vt 0.988331 0.629170
vt 0.988331 0.627486
vt 0.989522 0.626295
vt 0.991206 0.626295
vt 0.992397 0.627486
vt 0.992397 0.629170
vt 0.689282 0.745268
vt 0.934848 0.745268
vt 0.934848 0.765732
vt 0.689282 0.765732
vt 0.689282 0.765732
vt 0.934848 0.765732
vt 0.934848 0.786196
vt 0.689282 0.786196
vt 0.689282 0.786196
vt 0.934848 0.786196
vt 0.934848 0.806660
vt 0.689282 0.806660
vt 0.689282 0.724804
vt 0.934848 0.724804
vt 0.934848 0.745268
vt 0.689282 0.745268
vt 0.996805 0.830933
vt 0.996805 0.851397
vt 0.314677 0.851397
vt 0.314677 0.830933
vt 0.974362 0.573938
vt 0.974362 0.553474
vt 0.994826 0.553474
vt 0.994826 0.573938
vt 0.314677 0.892325
vt 0.314677 0.871861
vt 0.996805 0.871861
vt 0.996805 0.892325
vt 0.974362 0.598212
vt 0.974362 0.577748
vt 0.994826 0.577748
vt 0.994826 0.598212
vt 0.996805 0.851397
vt 0.996805 0.871861
vt 0.314677 0.871861
vt 0.314677 0.851397
vt 0.996805 0.810469
vt 0.996805 0.830933
vt 0.314677 0.830933
vt 0.314677 0.810469
vt 0.002930 0.594402
vt 0.002930 0.573938
vt 0.685058 0.573938
vt 0.685058 0.594402
vt 0.938807 0.602663
vt 0.959270 0.602663
vt 0.959270 0.623127
vt 0.938807 0.623127
vt 0.685058 0.614866
vt 0.685058 0.635330
vt 0.002930 0.635330
vt 0.002930 0.614866
vt 0.974362 0.602021
vt 0.994826 0.602021
vt 0.994826 0.622485
vt 0.974362 0.622485
vt 0.002930 0.573938
vt 0.002930 0.553474
vt 0.685058 0.553474
vt 0.685058 0.573938
vt 0.002930 0.614866
vt 0.002930 0.594402
vt 0.685058 0.594402
vt 0.685058 0.614866
vt 0.689282 0.573938
vt 0.934848 0.573938
vt 0.934848 0.594402
vt 0.689282 0.594402
vt 0.689282 0.594402
vt 0.934848 0.594402
vt 0.934848 0.614866
vt 0.689282 0.614866
vt 0.689282 0.614866
vt 0.934848 0.614866
vt 0.934848 0.635330
vt 0.689282 0.635330
vt 0.689282 0.553474
vt 0.934848 0.553474
vt 0.934848 0.573938
vt 0.689282 0.573938
vt 0.252455 0.002930
vt 0.498021 0.002930
vt 0.498021 0.549665
vt 0.252455 0.549665
vt 0.501979 0.002930
vt 0.747545 0.002930
vt 0.747545 0.549665
vt 0.501979 0.549665
vt 0.956584 0.553479
vt 0.958269 0.553479
vt 0.958286 0.598853
vt 0.956601 0.598854
vt 0.959953 0.553478
vt 0.959970 0.598853
vt 0.961637 0.553478
vt 0.961654 0.598852
vt 0.963321 0.553477
vt 0.963338 0.598851
vt 0.965006 0.553476
vt 0.965023 0.598851
vt 0.966690 0.553476
vt 0.966707 0.598850
vt 0.968374 0.553475
vt 0.968391 0.598849
vt 0.970059 0.553474
vt 0.970075 0.598849
vt 0.970174 0.603852
vt 0.970174 0.605536
vt 0.968141 0.604694
vt 0.968984 0.602661
vt 0.967299 0.602661
vt 0.966108 0.603852
vt 0.966108 0.605536
vt 0.967299 0.606727
vt 0.968984 0.606727
vt 0.965602 0.612570
vt 0.964760 0.614603
vt 0.963569 0.613412
vt 0.963569 0.611728
vt 0.964760 0.610537
vt 0.966444 0.610537
vt 0.967635 0.611728
vt 0.967635 0.613412
vt 0.966444 0.614603
s 0
usemtl set12
f 4/4/1 1/1/1 2/2/1
f 2/2/1 3/3/1 4/4/1
f 8/8/2 5/5/2 6/6/2
f 6/6/3 7/7/3 8/8/3
f 12/12/4 9/9/4 10/10/4
f 10/10/4 11/11/4 12/12/4
f 16/16/5 13/13/5 14/14/5
f 14/14/5 15/15/5 16/16/5
f 20/20/6 17/17/6 18/18/6
f 18/18/6 19/19/6 20/20/6
f 24/24/7 21/21/7 22/22/7
f 22/22/7 23/23/7 24/24/7
f 28/28/1 25/25/1 26/26/1
f 26/26/1 27/27/1 28/28/1
f 32/32/8 29/29/8 30/30/8
f 30/30/2 31/31/2 32/32/2
f 36/36/4 33/33/4 34/34/4
f 34/34/4 35/35/4 36/36/4
f 40/40/5 37/37/5 38/38/5
f 38/38/5 39/39/5 40/40/5
f 44/44/1 41/41/1 42/42/1
f 42/42/1 43/43/1 44/44/1
f 48/48/2 45/45/2 46/46/2
f 46/46/3 47/47/3 48/48/3
f 52/52/4 49/49/4 50/50/4
f 50/50/4 51/51/4 52/52/4
f 56/56/5 53/53/5 54/54/5
f 54/54/5 55/55/5 56/56/5
f 60/60/6 57/57/6 58/58/6
f 58/58/6 59/59/6 60/60/6
f 64/64/7 61/61/7 62/62/7
f 62/62/7 63/63/7 64/64/7
f 68/68/1 65/65/1 66/66/1
f 66/66/1 67/67/1 68/68/1
f 72/72/4 69/69/4 70/70/4
f 70/70/4 71/71/4 72/72/4
f 76/76/1 73/73/1 74/74/1
f 74/74/1 75/75/1 76/76/1
f 80/80/9 77/77/9 78/78/9
f 78/78/9 79/79/9 80/80/9
f 84/84/10 81/81/10 82/82/10
f 82/82/10 83/83/10 84/84/10
f 88/88/5 85/85/5 86/86/5
f 86/86/5 87/87/5 88/88/5
s 1
f 92/92/11 89/89/11 90/90/12
f 90/90/12 91/91/4 92/92/11
f 91/91/4 90/90/12 93/93/13
f 93/93/13 94/94/14 91/91/4
f 94/94/14 93/93/13 95/95/15
f 95/95/15 96/96/16 94/94/14
f 96/96/16 95/95/15 97/97/17
f 97/97/17 98/98/17 96/96/16
f 98/98/17 97/97/17 99/99/18
f 99/99/18 100/100/19 98/98/17
f 100/100/19 99/99/18 101/101/20
f 101/101/20 102/102/21 100/100/19
f 102/102/21 101/101/20 103/103/9
f 103/103/9 104/104/22 102/102/21
f 104/104/22 103/103/9 105/105/11
f 105/105/11 106/106/11 104/104/22
s 0
f 110/110/6 107/107/6 108/108/6
f 108/108/6 109/109/6 110/110/6
f 112/112/6 111/111/6 110/110/6
f 110/110/6 109/109/6 112/112/6
f 114/114/6 113/113/6 112/112/6
f 112/112/6 109/109/6 114/114/6
f 108/108/6 115/115/6 114/114/6
f 114/114/6 109/109/6 108/108/6
f 119/119/7 116/116/7 117/117/7
f 117/117/7 118/118/7 119/119/7
f 121/121/7 116/116/7 119/119/7
f 119/119/7 120/120/7 121/121/7
f 123/123/7 116/116/7 121/121/7
f 121/121/7 122/122/7 123/123/7
f 117/117/7 116/116/7 123/123/7
f 123/123/7 124/124/7 117/117/7
f 128/128/23 125/125/23 126/126/23
f 126/126/23 127/127/23 128/128/23
f 132/132/24 129/129/24 130/130/24
f 130/130/24 131/131/24 132/132/24
f 136/136/25 133/133/25 134/134/25
f 134/134/25 135/135/25 136/136/25
f 140/140/26 137/137/26 138/138/26
f 138/138/26 139/139/26 140/140/26
f 144/144/27 141/141/27 142/142/27
f 142/142/27 143/143/27 144/144/27
f 148/148/24 145/145/24 146/146/24
f 146/146/24 147/147/24 148/148/24
f 152/152/25 149/149/25 150/150/25
f 150/150/25 151/151/25 152/152/25
f 156/156/26 153/153/26 154/154/26
f 154/154/26 155/155/26 156/156/26
f 160/160/6 157/157/6 158/158/6
f 158/158/6 159/159/6 160/160/6
f 164/164/7 161/161/7 162/162/7
f 162/162/7 163/163/7 164/164/7
f 168/168/27 165/165/27 166/166/27
f 166/166/27 167/167/27 168/168/27
f 172/172/24 169/169/24 170/170/24
f 170/170/24 171/171/24 172/172/24
f 176/176/25 173/173/25 174/174/25
f 174/174/25 175/175/25 176/176/25
f 180/180/26 177/177/26 178/178/26
f 178/178/26 179/179/26 180/180/26
f 184/184/6 181/181/6 182/182/6
f 182/182/6 183/183/6 184/184/6
f 188/188/7 185/185/7 186/186/7
f 186/186/7 187/187/7 188/188/7
f 192/192/27 189/189/27 190/190/27
f 190/190/27 191/191/27 192/192/27
f 196/196/24 193/193/24 194/194/24
f 194/194/24 195/195/24 196/196/24
f 200/200/25 197/197/25 198/198/25
f 198/198/25 199/199/25 200/200/25
f 204/204/26 201/201/26 202/202/26
f 202/202/26 203/203/26 204/204/26
f 208/208/27 205/205/27 206/206/27
f 206/206/27 207/207/27 208/208/27
f 212/212/25 209/209/25 210/210/25
f 210/210/25 211/211/25 212/212/25
s 1
f 216/216/28 213/213/28 214/214/29
f 214/214/29 215/215/29 216/216/28
f 215/215/29 214/214/29 217/217/30
f 217/217/30 218/218/30 215/215/29
f 218/218/30 217/217/30 219/219/31
f 219/219/31 220/220/32 218/218/30
f 220/220/32 219/219/31 221/221/33
f 221/221/33 222/222/34 220/220/32
f 222/222/34 221/221/33 223/223/35
f 223/223/35 224/224/36 222/222/34
f 224/224/36 223/223/35 225/225/37
f 225/225/37 226/226/37 224/224/36
f 226/226/37 225/225/37 227/227/38
f 227/227/38 228/228/39 226/226/37
f 228/228/39 227/227/38 229/229/28
f 229/229/28 230/230/40 228/228/39
s 0
f 234/234/6 231/231/6 232/232/6
f 232/232/6 233/233/6 234/234/6
f 236/236/6 235/235/6 234/234/6
f 234/234/6 233/233/6 236/236/6
f 238/238/6 237/237/6 236/236/6
f 236/236/6 233/233/6 238/238/6
f 232/232/6 239/239/6 238/238/6
f 238/238/6 233/233/6 232/232/6
f 243/243/7 240/240/7 241/241/7
f 241/241/7 242/242/7 243/243/7
f 245/245/7 240/240/7 243/243/7
f 243/243/7 244/244/7 245/245/7
f 247/247/7 240/240/7 245/245/7
f 245/245/7 246/246/7 247/247/7
f 241/241/7 240/240/7 247/247/7
f 247/247/7 248/248/7 241/241/7
