# Blender 3.5.0
# www.blender.org
mtllib circle.mtl
o Supporto_02
v -0.353173 0.127313 1.996728
v -0.288579 0.239893 1.996739
v -0.352483 -0.128332 1.996725
v -0.375367 -0.000569 1.996724
v -0.187629 -0.323723 1.996247
v -0.287282 -0.240561 1.996740
v -0.065542 -0.367787 1.996784
v -0.189375 0.323593 1.996760
v 0.186101 -0.322714 1.996833
v 0.064253 -0.367440 1.996810
v 0.285306 -0.239014 1.996850
v 0.349899 -0.126433 1.996865
v 0.372092 0.001449 1.996869
v 0.349208 0.129211 1.996864
v 0.284009 0.241441 1.996850
v 0.062268 0.368665 1.996809
v 0.184355 0.324602 1.996831
v -0.067528 0.368314 1.996784
v -0.352391 0.127311 -1.984982
v -0.287798 0.239893 -1.984967
v -0.351702 -0.128334 -1.984981
v -0.374586 -0.000571 -1.984986
v -0.186847 -0.323725 -1.987769
v -0.286503 -0.240563 -1.984967
v -0.064761 -0.367789 -1.984925
v -0.188593 0.323591 -1.984950
v 0.186883 -0.322716 -1.984877
v 0.065034 -0.367440 -1.984900
v 0.286085 -0.239016 -1.984857
v 0.350679 -0.126435 -1.984846
v 0.372873 0.001449 -1.984841
v 0.349990 0.129209 -1.984843
v 0.284788 0.241440 -1.984857
v 0.063049 0.368663 -1.984898
v 0.185136 0.324602 -1.984875
v -0.066746 0.368314 -1.984927
vn -0.8674 0.4977 -0.0002
vn -0.9853 0.1710 -0.0002
vn -0.9843 -0.1763 -0.0002
vn -0.8647 -0.5023 -0.0002
vn -0.6407 -0.7678 -0.0001
vn -0.3395 -0.9406 -0.0001
vn -0.6449 0.7643 -0.0001
vn -0.3446 0.9388 -0.0001
vn 0.0027 -1.0000 -0.0000
vn 0.3446 -0.9388 0.0001
vn 0.6449 -0.7643 0.0001
vn 0.8674 -0.4977 0.0002
vn 0.9853 -0.1710 0.0002
vn 0.9843 0.1763 0.0002
vn 0.8647 0.5023 0.0002
vn 0.6407 0.7678 0.0001
vn 0.3395 0.9406 0.0001
vn -0.0027 1.0000 -0.0000
vn -0.0001 -0.0000 1.0000
vn -0.0115 -0.0197 0.9997
vn -0.0002 -0.0000 1.0000
vn -0.0001 -0.0001 1.0000
vn 0.0002 -0.0000 -1.0000
vn 0.0002 -0.0002 -1.0000
vn 0.0005 -0.0000 -1.0000
vn 0.0620 0.1077 -0.9922
vn -0.6448 0.7643 -0.0001
vn -0.0003 -0.0000 1.0000
vn 0.0001 -0.0000 1.0000
vt 0.770225 0.972470
vt 0.770225 0.972470
vt 0.770225 0.972470
vt 0.770225 0.972470
vt 0.770225 0.972470
vt 0.770225 0.972470
vt 0.770225 0.972470
vt 0.770225 0.972470
vt 0.770225 0.972470
vt 0.770225 0.972470
vt 0.770225 0.972470
vt 0.770225 0.972470
vt 0.770225 0.972470
vt 0.770225 0.972470
vt 0.770225 0.972470
vt 0.770225 0.972470
vt 0.770225 0.972470
vt 0.770225 0.972470
vt 0.770225 0.972470
vt 0.770225 0.972470
vt 0.770225 0.972470
vt 0.770225 0.972470
vt 0.770225 0.972470
vt 0.770225 0.972470
vt 0.770225 0.972470
vt 0.770225 0.972470
vt 0.770225 0.972470
vt 0.770225 0.972470
vt 0.770225 0.972470
vt 0.770225 0.972470
vt 0.770225 0.972470
vt 0.770225 0.972470
vt 0.770225 0.972470
vt 0.770225 0.972470
vt 0.770225 0.972470
vt 0.770225 0.972470
s 0
usemtl Color.001
f 2/2/1 19/19/1 1/1/1
f 4/4/2 19/19/2 22/22/2
f 4/4/3 21/21/3 3/3/3
f 3/3/4 24/24/4 6/6/4
f 5/5/5 24/24/5 23/23/5
f 5/5/6 25/25/6 7/7/6
f 8/8/7 20/20/7 2/2/7
f 18/18/8 26/26/8 8/8/8
f 10/10/9 25/25/9 28/28/9
f 10/10/10 27/27/10 9/9/10
f 9/9/11 29/29/11 11/11/11
f 11/11/12 30/30/12 12/12/12
f 12/12/13 31/31/13 13/13/13
f 14/14/14 31/31/14 32/32/14
f 14/14/15 33/33/15 15/15/15
f 15/15/16 35/35/16 17/17/16
f 17/17/17 34/34/17 16/16/17
f 18/18/18 34/34/18 36/36/18
f 2/2/19 1/1/19 4/4/19
f 7/7/20 6/6/20 5/5/20
f 15/15/21 18/18/21 14/14/21
f 7/7/21 10/10/21 9/9/21
f 9/9/22 11/11/22 12/12/22
f 20/20/23 22/22/23 19/19/23
f 33/33/23 36/36/23 35/35/23
f 17/17/21 16/16/21 18/18/21
f 4/4/21 6/6/21 2/2/21
f 25/25/23 36/36/23 27/27/23
f 8/8/21 6/6/21 18/18/21
f 36/36/24 34/34/24 35/35/24
f 12/12/21 14/14/21 9/9/21
f 32/32/25 31/31/25 30/30/25
f 30/30/23 29/29/23 27/27/23
f 27/27/23 28/28/23 25/25/23
f 25/25/26 23/23/26 24/24/26
f 24/24/23 21/21/23 22/22/23
f 24/24/23 26/26/23 36/36/23
f 30/30/23 36/36/23 32/32/23
f 9/9/21 18/18/21 6/6/21
f 2/2/1 20/20/1 19/19/1
f 4/4/2 1/1/2 19/19/2
f 4/4/3 22/22/3 21/21/3
f 3/3/4 21/21/4 24/24/4
f 5/5/5 6/6/5 24/24/5
f 5/5/6 23/23/6 25/25/6
f 8/8/27 26/26/27 20/20/27
f 18/18/8 36/36/8 26/26/8
f 10/10/9 7/7/9 25/25/9
f 10/10/10 28/28/10 27/27/10
f 9/9/11 27/27/11 29/29/11
f 11/11/12 29/29/12 30/30/12
f 12/12/13 30/30/13 31/31/13
f 14/14/14 13/13/14 31/31/14
f 14/14/15 32/32/15 33/33/15
f 15/15/16 33/33/16 35/35/16
f 17/17/17 35/35/17 34/34/17
f 18/18/18 16/16/18 34/34/18
f 7/7/21 9/9/21 6/6/21
f 15/15/21 17/17/21 18/18/21
f 20/20/23 26/26/23 22/22/23
f 33/33/23 32/32/23 36/36/23
f 4/4/28 3/3/28 6/6/28
f 25/25/23 24/24/23 36/36/23
f 8/8/29 2/2/29 6/6/29
f 12/12/21 13/13/21 14/14/21
f 24/24/23 22/22/23 26/26/23
f 30/30/23 27/27/23 36/36/23
f 9/9/21 14/14/21 18/18/21
