# Blender 3.5.0
# www.blender.org
mtllib StreetLight1.mtl
o Lampione_01.019
v -0.002611 0.011471 0.021097
v -0.013098 0.011471 0.018287
v -0.020775 0.011471 0.010610
v -0.023584 0.011471 0.000124
v -0.020775 0.011471 -0.010363
v -0.013098 0.011471 -0.018040
v -0.002611 0.011471 -0.020850
v 0.007875 0.011471 -0.018040
v 0.015552 0.011471 -0.010363
v 0.018362 0.011471 0.000123
v 0.015552 0.011471 0.010610
v 0.007875 0.011471 0.018287
v 0.339254 0.992171 -0.037108
v 0.339254 1.030394 -0.037108
v 0.339254 0.992171 0.037353
v 0.339254 1.030394 0.037353
v 0.280019 0.994269 -0.033021
v 0.280019 1.028296 -0.033021
v 0.280020 0.994269 0.033266
v 0.280020 1.028296 0.033266
v 0.377016 0.991794 0.038988
v 0.377016 0.991794 -0.038743
v 0.377016 1.030771 -0.038743
v 0.377016 1.030771 0.038988
v 0.370676 0.985162 -0.021875
v 0.370676 1.005421 -0.021875
v 0.370676 0.985162 0.022120
v 0.370676 1.005421 0.022120
v 0.289770 0.985162 -0.021875
v 0.289770 1.005421 -0.021875
v 0.289770 0.985162 0.022120
v 0.289770 1.005421 0.022120
v -0.002611 0.937592 0.015091
v -0.010095 0.937592 0.013086
v -0.015574 0.937592 0.007607
v -0.017579 0.937592 0.000124
v -0.015574 0.937592 -0.007360
v -0.010095 0.937592 -0.012839
v -0.002611 0.937592 -0.014844
v 0.004872 0.937592 -0.012839
v 0.010351 0.937592 -0.007360
v 0.012356 0.937592 0.000123
v 0.010351 0.937592 0.007607
v 0.004872 0.937592 0.013086
v 0.007273 0.973936 0.015091
v 0.000798 0.977690 0.013086
v -0.003941 0.980437 0.007607
v -0.005676 0.981443 0.000123
v -0.003941 0.980437 -0.007360
v 0.000798 0.977690 -0.012839
v 0.007273 0.973936 -0.014844
v 0.013747 0.970183 -0.012839
v 0.018487 0.967435 -0.007360
v 0.020222 0.966429 0.000123
v 0.018487 0.967435 0.007607
v 0.013747 0.970183 0.013086
v 0.034052 1.000422 0.015091
v 0.030334 1.006916 0.013086
v 0.027611 1.011670 0.007607
v 0.026615 1.013411 0.000123
v 0.027611 1.011670 -0.007360
v 0.030334 1.006916 -0.012839
v 0.034052 1.000422 -0.014844
v 0.037771 0.993927 -0.012839
v 0.040493 0.989173 -0.007360
v 0.041490 0.987433 0.000123
v 0.040493 0.989173 0.007607
v 0.037771 0.993927 0.013086
v 0.070504 1.009904 0.015091
v 0.070544 1.017388 0.013085
v 0.070573 1.022866 0.007607
v 0.070584 1.024871 0.000123
v 0.070573 1.022866 -0.007360
v 0.070544 1.017388 -0.012839
v 0.070504 1.009904 -0.014844
v 0.070464 1.002421 -0.012839
v 0.070435 0.996942 -0.007360
v 0.070424 0.994937 0.000123
v 0.070435 0.996942 0.007607
v 0.070464 1.002421 0.013085
v 0.279964 1.009904 0.012052
v 0.279996 1.015869 0.010454
v 0.280020 1.020235 0.006087
v 0.280028 1.021834 0.000123
v 0.280020 1.020235 -0.005842
v 0.279996 1.015869 -0.010208
v 0.279964 1.009904 -0.011807
v 0.279932 1.003940 -0.010208
v 0.279909 0.999573 -0.005842
v 0.279900 0.997975 0.000123
v 0.279909 0.999573 0.006087
v 0.279932 1.003940 0.010454
v -0.002463 0.000121 0.037878
v -0.002463 0.022842 0.025397
v -0.021864 0.000121 0.032680
v -0.015623 0.022842 0.021871
v -0.036066 0.000121 0.018478
v -0.025257 0.022842 0.012237
v -0.041264 0.000121 -0.000922
v -0.028783 0.022842 -0.000922
v -0.036066 0.000121 -0.020323
v -0.025257 0.022842 -0.014082
v -0.021864 0.000121 -0.034525
v -0.015623 0.022842 -0.023716
v -0.002464 0.000121 -0.039723
v -0.002464 0.022842 -0.027242
v 0.016937 0.000121 -0.034525
v 0.010696 0.022842 -0.023716
v 0.031139 0.000121 -0.020323
v 0.020330 0.022842 -0.014082
v 0.036337 0.000121 -0.000923
v 0.023856 0.022842 -0.000923
v 0.031139 0.000121 0.018478
v 0.020330 0.022842 0.012237
v 0.016937 0.000121 0.032679
v 0.010696 0.022842 0.021871
v -0.021864 0.022842 0.032680
v -0.002463 0.022842 0.037878
v -0.036066 0.022842 0.018478
v -0.041264 0.022842 -0.000922
v -0.036066 0.022842 -0.020323
v -0.021864 0.022842 -0.034525
v -0.002464 0.022842 -0.039723
v 0.016937 0.022842 -0.034525
v 0.031139 0.022842 -0.020323
v 0.036337 0.022842 -0.000923
v 0.031139 0.022842 0.018478
v 0.016937 0.022842 0.032679
v -0.015623 0.160350 0.021871
v -0.002463 0.160350 0.025397
v -0.025257 0.160350 0.012237
v -0.028783 0.160350 -0.000922
v -0.025257 0.160350 -0.014082
v -0.015623 0.160350 -0.023716
v -0.002464 0.160350 -0.027242
v 0.010696 0.160350 -0.023716
v 0.020330 0.160350 -0.014082
v 0.023856 0.160350 -0.000923
v 0.020330 0.160350 0.012237
v 0.010696 0.160350 0.021871
vn -0.2588 0.0048 0.9659
vn -0.2588 0.0097 0.9659
vn -0.0433 -0.0000 -0.9991
vn -0.0688 -0.0000 0.9976
vn -1.0000 -0.0000 -0.0000
vn -0.0688 -0.0000 -0.9976
vn -0.0354 -0.9994 -0.0000
vn -0.0354 0.9994 -0.0000
vn 1.0000 -0.0000 -0.0000
vn -0.0100 1.0000 -0.0000
vn -0.0100 -1.0000 -0.0000
vn -0.0432 -0.0000 0.9991
vn -0.0000 -0.0000 1.0000
vn -0.0000 -0.0000 -1.0000
vn -0.0000 -1.0000 -0.0000
vn 0.2588 0.0047 0.9659
vn 0.2588 0.0097 0.9659
vn 0.7071 0.0046 0.7071
vn 0.7071 0.0097 0.7070
vn 0.7071 0.0097 0.7071
vn 0.9659 0.0046 0.2589
vn 0.9659 0.0097 0.2588
vn 0.9659 0.0098 0.2588
vn 0.9659 0.0046 -0.2588
vn 0.9659 0.0097 -0.2588
vn 0.7071 0.0049 -0.7071
vn 0.7071 0.0096 -0.7071
vn 0.2588 0.0047 -0.9659
vn 0.2588 0.0097 -0.9659
vn -0.2588 0.0097 -0.9659
vn -0.2588 0.0046 -0.9659
vn -0.7071 0.0046 -0.7071
vn -0.7071 0.0097 -0.7071
vn -0.9659 0.0049 -0.2589
vn -0.9659 0.0097 -0.2588
vn -0.9659 0.0095 -0.2588
vn -0.9659 0.0048 0.2588
vn -0.9659 0.0096 0.2588
vn -0.7071 0.0048 0.7071
vn -0.7071 0.0097 0.7071
vn -0.2578 0.0701 -0.9636
vn -0.9343 0.2536 0.2504
vn 0.9341 -0.2547 0.2503
vn 0.2578 -0.0702 -0.9637
vn -0.9343 0.2536 -0.2507
vn 0.6944 -0.1891 0.6943
vn -0.2582 0.0701 0.9635
vn 0.6937 -0.1891 -0.6950
vn -0.6940 0.1885 -0.6949
vn 0.2582 -0.0702 0.9635
vn -0.6944 0.1885 0.6944
vn 0.9339 -0.2547 -0.2507
vn 0.6802 -0.6888 -0.2507
vn -0.1879 0.1900 -0.9636
vn -0.6811 0.6880 0.2504
vn 0.6804 -0.6888 0.2503
vn 0.1878 -0.1900 -0.9637
vn -0.6810 0.6880 -0.2507
vn 0.5059 -0.5118 0.6943
vn -0.1882 0.1902 0.9635
vn 0.5053 -0.5115 -0.6950
vn -0.5058 0.5111 -0.6949
vn 0.1881 -0.1902 0.9635
vn -0.5062 0.5114 0.6944
vn -0.1815 0.6963 0.6944
vn 0.2430 -0.9371 -0.2507
vn -0.0673 0.2586 -0.9636
vn -0.2442 0.9368 0.2504
vn 0.2432 -0.9371 0.2503
vn 0.0672 -0.2586 -0.9637
vn -0.2441 0.9368 -0.2507
vn 0.1809 -0.6965 0.6944
vn -0.0674 0.2589 0.9635
vn 0.1806 -0.6960 -0.6950
vn -0.1812 0.6959 -0.6949
vn 0.0674 -0.2589 0.9635
vn 0.0140 0.9658 -0.2588
vn 0.0140 -0.7071 0.7070
vn 0.0140 0.2587 0.9658
vn 0.0140 -0.7071 -0.7070
vn 0.0140 0.7070 -0.7071
vn 0.0140 -0.2589 0.9658
vn 0.0140 0.7070 0.7071
vn 0.0140 -0.9658 -0.2588
vn 0.0140 0.2587 -0.9659
vn 0.0140 0.9658 0.2588
vn 0.0140 -0.9658 0.2588
vn 0.0140 -0.2589 -0.9658
vn -0.2588 -0.0000 0.9659
vn -0.7071 -0.0000 0.7071
vn -0.9659 -0.0000 0.2588
vn -0.9659 -0.0000 -0.2588
vn -0.7071 -0.0000 -0.7071
vn -0.2588 -0.0000 -0.9659
vn 0.2588 -0.0000 -0.9659
vn 0.7071 -0.0000 -0.7071
vn 0.9659 -0.0000 -0.2588
vn 0.9659 -0.0000 0.2588
vn 0.7071 -0.0000 0.7071
vn 0.2588 -0.0000 0.9659
vn -0.0000 1.0000 -0.0000
vn -0.2588 0.0050 0.9659
vn 0.9659 0.0046 0.2588
vn 0.9659 0.0047 0.2588
vn 0.7071 0.0050 -0.7071
vn 0.2588 0.0046 -0.9659
vn -0.7071 0.0097 -0.7070
vn -0.9659 0.0049 -0.2588
vn -0.9659 0.0052 -0.2588
vn -0.9659 0.0051 0.2588
vn -0.7070 0.0097 0.7071
vn -0.2582 0.0701 -0.9635
vn -0.9343 0.2536 0.2507
vn 0.9339 -0.2547 0.2507
vn 0.2582 -0.0702 -0.9635
vn -0.9343 0.2536 -0.2504
vn 0.6937 -0.1891 0.6950
vn -0.2578 0.0701 0.9636
vn 0.6944 -0.1891 -0.6943
vn -0.6944 0.1885 -0.6944
vn 0.2578 -0.0702 0.9637
vn -0.6940 0.1885 0.6949
vn 0.9341 -0.2547 -0.2503
vn 0.6804 -0.6888 -0.2503
vn -0.1882 0.1902 -0.9635
vn -0.6810 0.6880 0.2507
vn 0.6802 -0.6888 0.2507
vn 0.1881 -0.1902 -0.9635
vn -0.6811 0.6880 -0.2504
vn 0.5053 -0.5115 0.6950
vn -0.1879 0.1900 0.9636
vn 0.5059 -0.5118 -0.6944
vn -0.5062 0.5114 -0.6944
vn 0.1878 -0.1900 0.9637
vn -0.5058 0.5111 0.6949
vn -0.1812 0.6959 0.6949
vn 0.2432 -0.9371 -0.2503
vn -0.0674 0.2589 -0.9635
vn -0.2441 0.9368 0.2507
vn 0.2430 -0.9371 0.2507
vn 0.0674 -0.2589 -0.9635
vn -0.2442 0.9368 -0.2504
vn 0.1806 -0.6960 0.6950
vn -0.0673 0.2586 0.9636
vn 0.1809 -0.6965 -0.6944
vn -0.1815 0.6963 -0.6944
vn 0.0672 -0.2586 0.9637
vt 0.627112 0.976032
vt 0.627112 0.976032
vt 0.627112 0.976032
vt 0.627112 0.976032
vt 0.627112 0.976032
vt 0.627112 0.976032
vt 0.627112 0.976032
vt 0.627112 0.976032
vt 0.627112 0.976032
vt 0.627112 0.976032
vt 0.627112 0.976032
vt 0.627112 0.976032
vt 0.627112 0.976032
vt 0.627112 0.976032
vt 0.627112 0.976032
vt 0.627112 0.976032
vt 0.627112 0.976032
vt 0.627112 0.976032
vt 0.627112 0.976032
vt 0.627112 0.976032
vt 0.627112 0.976032
vt 0.627112 0.976032
vt 0.627112 0.976032
vt 0.627112 0.976032
vt 0.435155 0.687053
vt 0.435155 0.687053
vt 0.435155 0.687053
vt 0.435155 0.687053
vt 0.435155 0.687053
vt 0.435155 0.687053
vt 0.435155 0.687053
vt 0.435155 0.687053
vt 0.627112 0.976032
vt 0.627112 0.976032
vt 0.627112 0.976032
vt 0.627112 0.976032
vt 0.627112 0.976032
vt 0.627112 0.976032
vt 0.627112 0.976032
vt 0.627112 0.976032
vt 0.627112 0.976032
vt 0.627112 0.976032
vt 0.627112 0.976032
vt 0.627112 0.976032
vt 0.627112 0.976032
vt 0.627112 0.976032
vt 0.627112 0.976032
vt 0.627112 0.976032
vt 0.627112 0.976032
vt 0.627112 0.976032
vt 0.627112 0.976032
vt 0.627112 0.976032
vt 0.627112 0.976032
vt 0.627112 0.976032
vt 0.627112 0.976032
vt 0.627112 0.976032
vt 0.627112 0.976032
vt 0.627112 0.976032
vt 0.627112 0.976032
vt 0.627112 0.976032
vt 0.627112 0.976032
vt 0.627112 0.976032
vt 0.627112 0.976032
vt 0.627112 0.976032
vt 0.627112 0.976032
vt 0.627112 0.976032
vt 0.627112 0.976032
vt 0.627112 0.976032
vt 0.627112 0.976032
vt 0.627112 0.976032
vt 0.627112 0.976032
vt 0.627112 0.976032
vt 0.627112 0.976032
vt 0.627112 0.976032
vt 0.627112 0.976032
vt 0.627112 0.976032
vt 0.627112 0.976032
vt 0.627112 0.976032
vt 0.627112 0.976032
vt 0.627112 0.976032
vt 0.627112 0.976032
vt 0.627112 0.976032
vt 0.627112 0.976032
vt 0.627112 0.976032
vt 0.627112 0.976032
vt 0.627112 0.976032
vt 0.627112 0.976032
vt 0.627112 0.976032
vt 0.627112 0.976032
vt 0.627112 0.976032
vt 0.627112 0.976032
vt 0.627112 0.976032
vt 0.627112 0.976032
vt 0.627112 0.976032
vt 0.627112 0.976032
vt 0.627112 0.976032
vt 0.627112 0.976032
vt 0.627112 0.976032
vt 0.627112 0.976032
vt 0.627112 0.976032
vt 0.627112 0.976032
vt 0.627112 0.976032
vt 0.627112 0.976032
vt 0.627112 0.976032
vt 0.627112 0.976032
vt 0.627112 0.976032
vt 0.627112 0.976032
vt 0.627112 0.976032
vt 0.627112 0.976032
vt 0.627112 0.976032
vt 0.627112 0.976032
vt 0.627112 0.976032
vt 0.627112 0.976032
vt 0.627112 0.976032
vt 0.627112 0.976032
vt 0.627112 0.976032
vt 0.627112 0.976032
vt 0.627112 0.976032
vt 0.627112 0.976032
vt 0.627112 0.976032
vt 0.627112 0.976032
vt 0.627112 0.976032
vt 0.627112 0.976032
vt 0.627112 0.976032
vt 0.627112 0.976032
vt 0.627112 0.976032
vt 0.627112 0.976032
vt 0.627112 0.976032
vt 0.627112 0.976032
vt 0.627112 0.976032
vt 0.627112 0.976032
vt 0.627112 0.976032
vt 0.627112 0.976032
vt 0.627112 0.976032
vt 0.627112 0.976032
vt 0.627112 0.976032
vt 0.627112 0.976032
vt 0.627112 0.976032
vt 0.627112 0.976032
vt 0.627112 0.976032
s 0
usemtl Color
f 33/33/1 2/2/2 1/1/2
f 14/14/3 22/22/3 13/13/3
f 16/16/4 19/19/4 15/15/4
f 20/20/5 17/17/5 19/19/5
f 18/18/6 13/13/6 17/17/6
f 15/15/7 17/17/7 13/13/7
f 16/16/8 18/18/8 20/20/8
f 23/23/9 21/21/9 22/22/9
f 14/14/10 24/24/10 23/23/10
f 13/13/11 21/21/11 15/15/11
f 16/16/12 21/21/12 24/24/12
f 26/26/9 27/27/9 25/25/9
f 28/28/13 31/31/13 27/27/13
f 32/32/5 29/29/5 31/31/5
f 30/30/14 25/25/14 29/29/14
f 31/31/15 25/25/15 27/27/15
f 44/44/16 1/1/17 12/12/17
f 43/43/18 12/12/19 11/11/20
f 42/42/21 11/11/22 10/10/23
f 41/41/24 10/10/25 9/9/25
f 40/40/26 9/9/27 8/8/27
f 39/39/28 8/8/29 7/7/29
f 6/6/30 39/39/31 7/7/30
f 37/37/32 6/6/33 5/5/33
f 36/36/34 5/5/35 4/4/36
f 35/35/37 4/4/38 3/3/38
f 34/34/39 3/3/40 2/2/40
f 39/39/41 50/50/41 51/51/41
f 35/35/42 48/48/42 36/36/42
f 42/42/43 55/55/43 43/43/43
f 40/40/44 51/51/44 52/52/44
f 37/37/45 48/48/45 49/49/45
f 43/43/46 56/56/46 44/44/46
f 33/33/47 46/46/47 34/34/47
f 41/41/48 52/52/48 53/53/48
f 38/38/49 49/49/49 50/50/49
f 44/44/50 45/45/50 33/33/50
f 34/34/51 47/47/51 35/35/51
f 42/42/52 53/53/52 54/54/52
f 54/54/53 65/65/53 66/66/53
f 51/51/54 62/62/54 63/63/54
f 47/47/55 60/60/55 48/48/55
f 54/54/56 67/67/56 55/55/56
f 52/52/57 63/63/57 64/64/57
f 49/49/58 60/60/58 61/61/58
f 55/55/59 68/68/59 56/56/59
f 45/45/60 58/58/60 46/46/60
f 53/53/61 64/64/61 65/65/61
f 50/50/62 61/61/62 62/62/62
f 56/56/63 57/57/63 45/45/63
f 46/46/64 59/59/64 47/47/64
f 58/58/65 71/71/65 59/59/65
f 66/66/66 77/77/66 78/78/66
f 63/63/67 74/74/67 75/75/67
f 59/59/68 72/72/68 60/60/68
f 66/66/69 79/79/69 67/67/69
f 64/64/70 75/75/70 76/76/70
f 61/61/71 72/72/71 73/73/71
f 67/67/72 80/80/72 68/68/72
f 57/57/73 70/70/73 58/58/73
f 65/65/74 76/76/74 77/77/74
f 62/62/75 73/73/75 74/74/75
f 68/68/76 69/69/76 57/57/76
f 72/72/77 85/85/77 73/73/77
f 80/80/78 91/91/78 92/92/78
f 70/70/79 81/81/79 82/82/79
f 76/76/80 89/89/80 77/77/80
f 73/73/81 86/86/81 74/74/81
f 69/69/82 92/92/82 81/81/82
f 71/71/83 82/82/83 83/83/83
f 77/77/84 90/90/84 78/78/84
f 74/74/85 87/87/85 75/75/85
f 72/72/86 83/83/86 84/84/86
f 79/79/87 90/90/87 91/91/87
f 75/75/88 88/88/88 76/76/88
f 118/118/89 95/95/89 93/93/89
f 117/117/90 97/97/90 95/95/90
f 119/119/91 99/99/91 97/97/91
f 120/120/92 101/101/92 99/99/92
f 121/121/93 103/103/93 101/101/93
f 122/122/94 105/105/94 103/103/94
f 123/123/95 107/107/95 105/105/95
f 124/124/96 109/109/96 107/107/96
f 125/125/97 111/111/97 109/109/97
f 126/126/98 113/113/98 111/111/98
f 96/96/90 131/131/90 98/98/90
f 127/127/99 115/115/99 113/113/99
f 128/128/100 93/93/100 115/115/100
f 94/94/101 117/117/101 118/118/101
f 98/98/101 117/117/101 96/96/101
f 100/100/101 119/119/101 98/98/101
f 102/102/101 120/120/101 100/100/101
f 102/102/101 122/122/101 121/121/101
f 106/106/101 122/122/101 104/104/101
f 106/106/101 124/124/101 123/123/101
f 110/110/101 124/124/101 108/108/101
f 110/110/101 126/126/101 125/125/101
f 114/114/101 126/126/101 112/112/101
f 114/114/101 128/128/101 127/127/101
f 94/94/101 128/128/101 116/116/101
f 110/110/97 138/138/97 112/112/97
f 104/104/94 135/135/94 106/106/94
f 98/98/91 132/132/91 100/100/91
f 112/112/98 139/139/98 114/114/98
f 106/106/95 136/136/95 108/108/95
f 100/100/92 133/133/92 102/102/92
f 114/114/99 140/140/99 116/116/99
f 94/94/89 129/129/89 96/96/89
f 108/108/96 137/137/96 110/110/96
f 102/102/93 134/134/93 104/104/93
f 116/116/100 130/130/100 94/94/100
f 131/131/101 129/129/101 130/130/101
f 138/138/101 135/135/101 139/139/101
f 132/132/101 134/134/101 133/133/101
f 137/137/101 136/136/101 135/135/101
f 140/140/101 131/131/101 130/130/101
f 135/135/101 131/131/101 139/139/101
f 33/33/1 34/34/102 2/2/2
f 14/14/3 23/23/3 22/22/3
f 16/16/4 20/20/4 19/19/4
f 20/20/5 18/18/5 17/17/5
f 18/18/6 14/14/6 13/13/6
f 15/15/7 19/19/7 17/17/7
f 16/16/8 14/14/8 18/18/8
f 23/23/9 24/24/9 21/21/9
f 14/14/10 16/16/10 24/24/10
f 13/13/11 22/22/11 21/21/11
f 16/16/12 15/15/12 21/21/12
f 26/26/9 28/28/9 27/27/9
f 28/28/13 32/32/13 31/31/13
f 32/32/5 30/30/5 29/29/5
f 30/30/14 26/26/14 25/25/14
f 31/31/15 29/29/15 25/25/15
f 44/44/16 33/33/16 1/1/17
f 43/43/18 44/44/18 12/12/19
f 42/42/103 43/43/104 11/11/22
f 41/41/24 42/42/24 10/10/25
f 40/40/26 41/41/105 9/9/27
f 39/39/28 40/40/106 8/8/29
f 6/6/30 38/38/31 39/39/31
f 37/37/32 38/38/32 6/6/107
f 36/36/108 37/37/109 5/5/35
f 35/35/37 36/36/110 4/4/38
f 34/34/39 35/35/39 3/3/111
f 39/39/112 38/38/112 50/50/112
f 35/35/113 47/47/113 48/48/113
f 42/42/114 54/54/114 55/55/114
f 40/40/115 39/39/115 51/51/115
f 37/37/116 36/36/116 48/48/116
f 43/43/117 55/55/117 56/56/117
f 33/33/118 45/45/118 46/46/118
f 41/41/119 40/40/119 52/52/119
f 38/38/120 37/37/120 49/49/120
f 44/44/121 56/56/121 45/45/121
f 34/34/122 46/46/122 47/47/122
f 42/42/123 41/41/123 53/53/123
f 54/54/124 53/53/124 65/65/124
f 51/51/125 50/50/125 62/62/125
f 47/47/126 59/59/126 60/60/126
f 54/54/127 66/66/127 67/67/127
f 52/52/128 51/51/128 63/63/128
f 49/49/129 48/48/129 60/60/129
f 55/55/130 67/67/130 68/68/130
f 45/45/131 57/57/131 58/58/131
f 53/53/132 52/52/132 64/64/132
f 50/50/133 49/49/133 61/61/133
f 56/56/134 68/68/134 57/57/134
f 46/46/135 58/58/135 59/59/135
f 58/58/136 70/70/136 71/71/136
f 66/66/137 65/65/137 77/77/137
f 63/63/138 62/62/138 74/74/138
f 59/59/139 71/71/139 72/72/139
f 66/66/140 78/78/140 79/79/140
f 64/64/141 63/63/141 75/75/141
f 61/61/142 60/60/142 72/72/142
f 67/67/143 79/79/143 80/80/143
f 57/57/144 69/69/144 70/70/144
f 65/65/145 64/64/145 76/76/145
f 62/62/146 61/61/146 73/73/146
f 68/68/147 80/80/147 69/69/147
f 72/72/77 84/84/77 85/85/77
f 80/80/78 79/79/78 91/91/78
f 70/70/79 69/69/79 81/81/79
f 76/76/80 88/88/80 89/89/80
f 73/73/81 85/85/81 86/86/81
f 69/69/82 80/80/82 92/92/82
f 71/71/83 70/70/83 82/82/83
f 77/77/84 89/89/84 90/90/84
f 74/74/85 86/86/85 87/87/85
f 72/72/86 71/71/86 83/83/86
f 79/79/87 78/78/87 90/90/87
f 75/75/88 87/87/88 88/88/88
f 118/118/89 117/117/89 95/95/89
f 117/117/90 119/119/90 97/97/90
f 119/119/91 120/120/91 99/99/91
f 120/120/92 121/121/92 101/101/92
f 121/121/93 122/122/93 103/103/93
f 122/122/94 123/123/94 105/105/94
f 123/123/95 124/124/95 107/107/95
f 124/124/96 125/125/96 109/109/96
f 125/125/97 126/126/97 111/111/97
f 126/126/98 127/127/98 113/113/98
f 96/96/90 129/129/90 131/131/90
f 127/127/99 128/128/99 115/115/99
f 128/128/100 118/118/100 93/93/100
f 94/94/101 96/96/101 117/117/101
f 98/98/101 119/119/101 117/117/101
f 100/100/101 120/120/101 119/119/101
f 102/102/101 121/121/101 120/120/101
f 102/102/101 104/104/101 122/122/101
f 106/106/101 123/123/101 122/122/101
f 106/106/101 108/108/101 124/124/101
f 110/110/101 125/125/101 124/124/101
f 110/110/101 112/112/101 126/126/101
f 114/114/101 127/127/101 126/126/101
f 114/114/101 116/116/101 128/128/101
f 94/94/101 118/118/101 128/128/101
f 110/110/97 137/137/97 138/138/97
f 104/104/94 134/134/94 135/135/94
f 98/98/91 131/131/91 132/132/91
f 112/112/98 138/138/98 139/139/98
f 106/106/95 135/135/95 136/136/95
f 100/100/92 132/132/92 133/133/92
f 114/114/99 139/139/99 140/140/99
f 94/94/89 130/130/89 129/129/89
f 108/108/96 136/136/96 137/137/96
f 102/102/93 133/133/93 134/134/93
f 116/116/100 140/140/100 130/130/100
f 138/138/101 137/137/101 135/135/101
f 132/132/101 131/131/101 134/134/101
f 140/140/101 139/139/101 131/131/101
f 135/135/101 134/134/101 131/131/101
