# Blender 3.5.0
# www.blender.org
mtllib table.mtl
o Cartoncino_03.001
v 0.092850 0.277818 -0.041445
v 0.056111 0.277818 -0.033202
v 0.103184 0.277818 0.004620
v 0.066445 0.277818 0.012862
v 0.074480 0.358288 -0.037323
v 0.084815 0.358288 0.008741
vn -0.9501 0.2278 0.2132
vn 0.9501 0.2278 -0.2132
vt 0.325284 0.834666
vt 0.325284 0.834666
vt 0.325284 0.834666
vt 0.325284 0.834666
vt 0.325284 0.834666
vt 0.325284 0.834666
s 0
usemtl Color
f 2/2/1 6/6/1 5/5/1
f 5/5/2 3/3/2 1/1/2
f 2/2/1 4/4/1 6/6/1
f 5/5/2 6/6/2 3/3/2
o Cube.029
v -0.085121 0.120357 -0.146793
v -0.085121 0.128258 -0.146793
v -0.085121 0.120357 -0.304091
v -0.085121 0.128258 -0.304091
v 0.072177 0.120357 -0.146793
v 0.072177 0.128258 -0.146793
v 0.072177 0.120357 -0.304091
v 0.072177 0.128258 -0.304091
v 0.062035 0.120357 -0.304091
v 0.062035 0.128258 -0.304091
v 0.062035 0.120357 -0.146793
v -0.074724 0.120357 -0.304091
v -0.074724 0.128258 -0.304091
v -0.074724 0.120357 -0.146793
v -0.085121 0.120357 -0.293367
v -0.085121 0.128258 -0.293367
v 0.072177 0.120357 -0.293367
v 0.072177 0.128258 -0.293367
v 0.062035 0.128258 -0.293367
v 0.062035 0.120357 -0.293367
v -0.074724 0.120357 -0.293367
v -0.074724 0.128258 -0.293367
v -0.085121 0.120357 -0.157536
v 0.062035 0.128258 -0.157536
v 0.062035 0.120357 -0.157536
v -0.074724 0.120357 -0.157536
v -0.074724 0.128258 -0.157536
v 0.072177 0.120357 -0.157536
v -0.085121 -0.000857 -0.157536
v -0.085121 -0.000857 -0.146793
v -0.074724 -0.000857 -0.304091
v -0.085121 -0.000857 -0.304091
v 0.072177 -0.000857 -0.293367
v 0.072177 -0.000857 -0.304091
v 0.062035 -0.000857 -0.146793
v 0.072177 -0.000857 -0.146793
v 0.062035 -0.000857 -0.304091
v 0.062035 -0.000857 -0.157536
v -0.074724 -0.000857 -0.146793
v -0.074724 -0.000857 -0.157536
v -0.085121 -0.000857 -0.293367
v 0.062035 -0.000857 -0.293367
v -0.074724 -0.000857 -0.293367
v 0.072177 -0.000857 -0.157536
v -0.085121 0.283972 -0.293367
v -0.085121 0.283972 -0.304091
v 0.062035 0.207763 -0.304091
v 0.072177 0.283972 -0.304091
v -0.074724 0.207763 -0.304091
v 0.072177 0.283972 -0.293367
v 0.062035 0.207763 -0.293367
v -0.074724 0.207763 -0.293367
vn -1.0000 -0.0000 -0.0000
vn -0.0000 -0.0000 -1.0000
vn 1.0000 -0.0000 -0.0000
vn -0.0000 -0.0000 1.0000
vn -0.0000 -1.0000 -0.0000
vn -0.0000 1.0000 -0.0000
vt 0.375980 0.454476
vt 0.375980 0.454476
vt 0.375980 0.454476
vt 0.375980 0.454476
vt 0.375980 0.454476
vt 0.375980 0.454476
vt 0.375980 0.454476
vt 0.375980 0.454476
vt 0.375980 0.454476
vt 0.375980 0.454476
vt 0.375980 0.454476
vt 0.375980 0.454476
vt 0.375980 0.454476
vt 0.375980 0.454476
vt 0.375980 0.454476
vt 0.375980 0.454476
vt 0.375980 0.454476
vt 0.375980 0.454476
vt 0.375980 0.454476
vt 0.375980 0.454476
vt 0.375980 0.454476
vt 0.375980 0.454476
vt 0.375980 0.454476
vt 0.375980 0.454476
vt 0.375980 0.454476
vt 0.375980 0.454476
vt 0.375980 0.454476
vt 0.375980 0.454476
vt 0.375980 0.454476
vt 0.375980 0.454476
vt 0.375980 0.454476
vt 0.375980 0.454476
vt 0.375980 0.454476
vt 0.375980 0.454476
vt 0.375980 0.454476
vt 0.375980 0.454476
vt 0.375980 0.454476
vt 0.375980 0.454476
vt 0.375980 0.454476
vt 0.375980 0.454476
vt 0.375980 0.454476
vt 0.375980 0.454476
vt 0.375980 0.454476
vt 0.375980 0.454476
vt 0.375980 0.454476
vt 0.375980 0.454476
vt 0.375980 0.454476
vt 0.375980 0.454476
vt 0.375980 0.454476
vt 0.375980 0.454476
vt 0.375980 0.454476
vt 0.375980 0.454476
s 0
usemtl Color
f 22/22/3 9/9/3 21/21/3
f 16/16/4 13/13/4 15/15/4
f 34/34/5 12/12/5 11/11/5
f 20/20/6 8/8/6 7/7/6
f 27/27/5 37/37/5 18/18/5
f 31/31/7 20/20/7 32/32/7
f 11/11/6 12/12/6 17/17/6
f 19/19/4 15/15/4 18/18/4
f 10/10/4 18/18/4 9/9/4
f 26/26/6 39/39/6 23/23/6
f 33/33/8 12/12/8 30/30/8
f 12/12/6 20/20/6 17/17/6
f 19/19/8 25/25/8 16/16/8
f 18/18/4 38/38/4 9/9/4
f 15/15/7 27/27/7 18/18/7
f 19/19/5 58/58/5 28/28/5
f 24/24/6 57/57/6 25/25/6
f 15/15/3 48/48/3 26/26/3
f 14/14/5 23/23/5 13/13/5
f 29/29/3 22/22/3 21/21/3
f 7/7/3 8/8/3 29/29/3
f 28/28/8 30/30/8 25/25/8
f 27/27/7 29/29/7 21/21/7
f 26/26/7 32/32/7 27/27/7
f 24/24/8 30/30/8 12/12/8
f 22/22/8 33/33/8 28/28/8
f 23/23/7 31/31/7 26/26/7
f 24/24/5 34/34/5 23/23/5
f 13/13/4 43/43/4 15/15/4
f 9/9/3 47/47/3 21/21/3
f 34/34/4 44/44/4 31/31/4
f 11/11/5 50/50/5 34/34/5
f 23/23/5 40/40/5 13/13/5
f 29/29/3 36/36/3 7/7/3
f 21/21/6 49/49/6 27/27/6
f 7/7/6 45/45/6 20/20/6
f 32/32/4 35/35/4 29/29/4
f 31/31/3 41/41/3 17/17/3
f 17/17/6 42/42/6 11/11/6
f 20/20/5 46/46/5 32/32/5
f 22/22/3 52/52/3 10/10/3
f 10/10/4 55/55/4 19/19/4
f 14/14/5 56/56/5 24/24/5
f 22/22/6 58/58/6 51/51/6
f 14/14/4 53/53/4 54/54/4
f 25/25/3 53/53/3 16/16/3
f 51/51/8 54/54/8 52/52/8
f 55/55/4 54/54/4 53/53/4
f 56/56/6 58/58/6 57/57/6
f 58/58/7 53/53/7 57/57/7
f 22/22/3 10/10/3 9/9/3
f 16/16/4 14/14/4 13/13/4
f 27/27/5 49/49/5 37/37/5
f 31/31/7 17/17/7 20/20/7
f 19/19/4 16/16/4 15/15/4
f 10/10/4 19/19/4 18/18/4
f 26/26/6 48/48/6 39/39/6
f 33/33/8 8/8/8 12/12/8
f 12/12/6 8/8/6 20/20/6
f 19/19/8 28/28/8 25/25/8
f 18/18/4 37/37/4 38/38/4
f 15/15/7 26/26/7 27/27/7
f 19/19/5 55/55/5 58/58/5
f 24/24/6 56/56/6 57/57/6
f 15/15/3 43/43/3 48/48/3
f 14/14/5 24/24/5 23/23/5
f 29/29/3 8/8/3 22/22/3
f 28/28/8 33/33/8 30/30/8
f 27/27/7 32/32/7 29/29/7
f 26/26/7 31/31/7 32/32/7
f 24/24/8 25/25/8 30/30/8
f 22/22/8 8/8/8 33/33/8
f 23/23/7 34/34/7 31/31/7
f 24/24/5 12/12/5 34/34/5
f 13/13/4 40/40/4 43/43/4
f 9/9/3 38/38/3 47/47/3
f 34/34/4 50/50/4 44/44/4
f 11/11/5 42/42/5 50/50/5
f 23/23/5 39/39/5 40/40/5
f 29/29/3 35/35/3 36/36/3
f 21/21/6 47/47/6 49/49/6
f 7/7/6 36/36/6 45/45/6
f 32/32/4 46/46/4 35/35/4
f 31/31/3 44/44/3 41/41/3
f 17/17/6 41/41/6 42/42/6
f 20/20/5 45/45/5 46/46/5
f 22/22/3 51/51/3 52/52/3
f 10/10/4 52/52/4 55/55/4
f 14/14/5 54/54/5 56/56/5
f 22/22/6 28/28/6 58/58/6
f 14/14/4 16/16/4 53/53/4
f 25/25/3 57/57/3 53/53/3
f 51/51/8 56/56/8 54/54/8
f 55/55/4 52/52/4 54/54/4
f 56/56/6 51/51/6 58/58/6
f 58/58/7 55/55/7 53/53/7
o Cube.030
v 0.072305 0.120357 0.150583
v 0.072305 0.128258 0.150583
v 0.072305 0.120357 0.307881
v 0.072305 0.128258 0.307881
v -0.084993 0.120357 0.150583
v -0.084993 0.128258 0.150583
v -0.084993 0.120357 0.307881
v -0.084993 0.128258 0.307881
v -0.074851 0.120357 0.307881
v -0.074851 0.128258 0.307881
v -0.074851 0.120357 0.150583
v 0.061908 0.120357 0.307881
v 0.061908 0.128258 0.307881
v 0.061908 0.120357 0.150583
v 0.072305 0.120357 0.297157
v 0.072305 0.128258 0.297157
v -0.084993 0.120357 0.297157
v -0.084993 0.128258 0.297157
v -0.074851 0.128258 0.297157
v -0.074851 0.120357 0.297157
v 0.061908 0.120357 0.297157
v 0.061908 0.128258 0.297157
v 0.072305 0.120357 0.161326
v -0.074851 0.128258 0.161326
v -0.074851 0.120357 0.161326
v 0.061908 0.120357 0.161326
v 0.061908 0.128258 0.161326
v -0.084993 0.120357 0.161326
v 0.072305 -0.000857 0.161326
v 0.072305 -0.000857 0.150583
v 0.061908 -0.000857 0.307881
v 0.072305 -0.000857 0.307881
v -0.084993 -0.000857 0.297157
v -0.084993 -0.000857 0.307881
v -0.074851 -0.000857 0.150583
v -0.084993 -0.000857 0.150583
v -0.074851 -0.000857 0.307881
v -0.074851 -0.000857 0.161326
v 0.061908 -0.000857 0.150583
v 0.061908 -0.000857 0.161326
v 0.072305 -0.000857 0.297157
v -0.074851 -0.000857 0.297157
v 0.061908 -0.000857 0.297157
v -0.084993 -0.000857 0.161326
v 0.072305 0.283972 0.297157
v 0.072305 0.283972 0.307881
v -0.074851 0.207763 0.307881
v -0.084993 0.283972 0.307881
v 0.061908 0.207763 0.307881
v -0.084993 0.283972 0.297157
v -0.074851 0.207763 0.297157
v 0.061908 0.207763 0.297157
vn 1.0000 -0.0000 -0.0000
vn -0.0000 -0.0000 1.0000
vn -1.0000 -0.0000 -0.0000
vn -0.0000 -0.0000 -1.0000
vn -0.0000 -1.0000 -0.0000
vn -0.0000 1.0000 -0.0000
vt 0.375980 0.454476
vt 0.375980 0.454476
vt 0.375980 0.454476
vt 0.375980 0.454476
vt 0.375980 0.454476
vt 0.375980 0.454476
vt 0.375980 0.454476
vt 0.375980 0.454476
vt 0.375980 0.454476
vt 0.375980 0.454476
vt 0.375980 0.454476
vt 0.375980 0.454476
vt 0.375980 0.454476
vt 0.375980 0.454476
vt 0.375980 0.454476
vt 0.375980 0.454476
vt 0.375980 0.454476
vt 0.375980 0.454476
vt 0.375980 0.454476
vt 0.375980 0.454476
vt 0.375980 0.454476
vt 0.375980 0.454476
vt 0.375980 0.454476
vt 0.375980 0.454476
vt 0.375980 0.454476
vt 0.375980 0.454476
vt 0.375980 0.454476
vt 0.375980 0.454476
vt 0.375980 0.454476
vt 0.375980 0.454476
vt 0.375980 0.454476
vt 0.375980 0.454476
vt 0.375980 0.454476
vt 0.375980 0.454476
vt 0.375980 0.454476
vt 0.375980 0.454476
vt 0.375980 0.454476
vt 0.375980 0.454476
vt 0.375980 0.454476
vt 0.375980 0.454476
vt 0.375980 0.454476
vt 0.375980 0.454476
vt 0.375980 0.454476
vt 0.375980 0.454476
vt 0.375980 0.454476
vt 0.375980 0.454476
vt 0.375980 0.454476
vt 0.375980 0.454476
vt 0.375980 0.454476
vt 0.375980 0.454476
vt 0.375980 0.454476
vt 0.375980 0.454476
s 0
usemtl Color
f 74/74/9 61/61/9 73/73/9
f 68/68/10 65/65/10 67/67/10
f 86/86/11 64/64/11 63/63/11
f 72/72/12 60/60/12 59/59/12
f 79/79/11 89/89/11 70/70/11
f 83/83/13 72/72/13 84/84/13
f 63/63/12 64/64/12 69/69/12
f 71/71/10 67/67/10 70/70/10
f 62/62/10 70/70/10 61/61/10
f 78/78/12 91/91/12 75/75/12
f 85/85/14 64/64/14 82/82/14
f 64/64/12 72/72/12 69/69/12
f 71/71/14 77/77/14 68/68/14
f 70/70/10 90/90/10 61/61/10
f 67/67/13 79/79/13 70/70/13
f 71/71/11 110/110/11 80/80/11
f 76/76/12 109/109/12 77/77/12
f 67/67/9 100/100/9 78/78/9
f 66/66/11 75/75/11 65/65/11
f 81/81/9 74/74/9 73/73/9
f 59/59/9 60/60/9 81/81/9
f 80/80/14 82/82/14 77/77/14
f 79/79/13 81/81/13 73/73/13
f 78/78/13 84/84/13 79/79/13
f 76/76/14 82/82/14 64/64/14
f 74/74/14 85/85/14 80/80/14
f 75/75/13 83/83/13 78/78/13
f 76/76/11 86/86/11 75/75/11
f 65/65/10 95/95/10 67/67/10
f 61/61/9 99/99/9 73/73/9
f 86/86/10 96/96/10 83/83/10
f 63/63/11 102/102/11 86/86/11
f 75/75/11 92/92/11 65/65/11
f 81/81/9 88/88/9 59/59/9
f 73/73/12 101/101/12 79/79/12
f 59/59/12 97/97/12 72/72/12
f 84/84/10 87/87/10 81/81/10
f 83/83/9 93/93/9 69/69/9
f 69/69/12 94/94/12 63/63/12
f 72/72/11 98/98/11 84/84/11
f 74/74/9 104/104/9 62/62/9
f 62/62/10 107/107/10 71/71/10
f 66/66/11 108/108/11 76/76/11
f 74/74/12 110/110/12 103/103/12
f 66/66/10 105/105/10 106/106/10
f 77/77/9 105/105/9 68/68/9
f 103/103/14 106/106/14 104/104/14
f 107/107/10 106/106/10 105/105/10
f 108/108/12 110/110/12 109/109/12
f 110/110/13 105/105/13 109/109/13
f 74/74/9 62/62/9 61/61/9
f 68/68/10 66/66/10 65/65/10
f 79/79/11 101/101/11 89/89/11
f 83/83/13 69/69/13 72/72/13
f 71/71/10 68/68/10 67/67/10
f 62/62/10 71/71/10 70/70/10
f 78/78/12 100/100/12 91/91/12
f 85/85/14 60/60/14 64/64/14
f 64/64/12 60/60/12 72/72/12
f 71/71/14 80/80/14 77/77/14
f 70/70/10 89/89/10 90/90/10
f 67/67/13 78/78/13 79/79/13
f 71/71/11 107/107/11 110/110/11
f 76/76/12 108/108/12 109/109/12
f 67/67/9 95/95/9 100/100/9
f 66/66/11 76/76/11 75/75/11
f 81/81/9 60/60/9 74/74/9
f 80/80/14 85/85/14 82/82/14
f 79/79/13 84/84/13 81/81/13
f 78/78/13 83/83/13 84/84/13
f 76/76/14 77/77/14 82/82/14
f 74/74/14 60/60/14 85/85/14
f 75/75/13 86/86/13 83/83/13
f 76/76/11 64/64/11 86/86/11
f 65/65/10 92/92/10 95/95/10
f 61/61/9 90/90/9 99/99/9
f 86/86/10 102/102/10 96/96/10
f 63/63/11 94/94/11 102/102/11
f 75/75/11 91/91/11 92/92/11
f 81/81/9 87/87/9 88/88/9
f 73/73/12 99/99/12 101/101/12
f 59/59/12 88/88/12 97/97/12
f 84/84/10 98/98/10 87/87/10
f 83/83/9 96/96/9 93/93/9
f 69/69/12 93/93/12 94/94/12
f 72/72/11 97/97/11 98/98/11
f 74/74/9 103/103/9 104/104/9
f 62/62/10 104/104/10 107/107/10
f 66/66/11 106/106/11 108/108/11
f 74/74/12 80/80/12 110/110/12
f 66/66/10 68/68/10 105/105/10
f 77/77/9 109/109/9 105/105/9
f 103/103/14 108/108/14 106/106/14
f 107/107/10 104/104/10 106/106/10
f 108/108/12 103/103/12 110/110/12
f 110/110/13 107/107/13 105/105/13
o Tavolino_02.002
v -0.072783 0.009722 0.058117
v 0.039272 0.009722 0.058117
v -0.072783 0.009721 -0.053939
v 0.039272 0.009721 -0.053939
v -0.031031 0.014295 0.016364
v -0.002481 0.014295 0.016364
v -0.031031 0.014295 -0.012186
v -0.002481 0.014295 -0.012186
v -0.030334 0.257421 -0.011489
v -0.030334 0.257421 0.015667
v -0.003178 0.257421 0.015667
v -0.003178 0.257421 -0.011489
v -0.191309 0.274873 -0.172464
v -0.191309 0.274873 0.176643
v 0.157798 0.274873 0.176642
v 0.157798 0.274873 -0.172465
v -0.191309 0.280727 -0.172464
v -0.191309 0.280727 0.176643
v 0.157798 0.280727 0.176642
v 0.157798 0.280727 -0.172465
v -0.072783 0.002595 0.058117
v 0.039272 0.002595 0.058117
v -0.072783 0.002595 -0.053939
v 0.039272 0.002595 -0.053939
vn -0.0000 -0.0000 1.0000
vn 1.0000 0.0029 -0.0000
vn 0.1089 0.9941 -0.0000
vn -0.1089 0.9941 -0.0000
vn -0.0000 0.9941 -0.1089
vn -0.0000 0.9941 0.1089
vn -0.0000 -0.9942 -0.1078
vn -1.0000 0.0029 -0.0000
vn -0.0000 0.0029 -1.0000
vn -0.0000 0.0029 1.0000
vn -0.0000 -0.0000 -1.0000
vn -0.0000 -0.9942 0.1078
vn 0.1078 -0.9942 -0.0000
vn -0.1078 -0.9942 -0.0000
vn -0.0000 1.0000 -0.0000
vn 1.0000 -0.0000 -0.0000
vn -1.0000 -0.0000 -0.0000
vt 0.427734 0.457031
vt 0.427734 0.457031
vt 0.427734 0.457031
vt 0.427734 0.457031
vt 0.427734 0.457031
vt 0.427734 0.457031
vt 0.427734 0.457031
vt 0.427734 0.457031
vt 0.427734 0.457031
vt 0.427734 0.457031
vt 0.427734 0.457031
vt 0.427734 0.457031
vt 0.427734 0.457031
vt 0.427734 0.457031
vt 0.427734 0.457031
vt 0.427734 0.457031
vt 0.427734 0.457031
vt 0.427734 0.457031
vt 0.427734 0.457031
vt 0.427734 0.457031
vt 0.427734 0.457031
vt 0.427734 0.457031
vt 0.427734 0.457031
vt 0.427734 0.457031
s 0
usemtl Color
f 111/111/15 132/132/15 112/112/15
f 118/118/16 121/121/16 116/116/16
f 114/114/17 116/116/17 112/112/17
f 111/111/18 117/117/18 113/113/18
f 113/113/19 118/118/19 114/114/19
f 111/111/20 116/116/20 115/115/20
f 122/122/21 123/123/21 126/126/21
f 115/115/22 119/119/22 117/117/22
f 117/117/23 122/122/23 118/118/23
f 115/115/24 121/121/24 120/120/24
f 123/123/25 130/130/25 126/126/25
f 121/121/26 124/124/26 120/120/26
f 122/122/27 125/125/27 121/121/27
f 119/119/28 124/124/28 123/123/28
f 129/129/29 127/127/29 128/128/29
f 125/125/15 128/128/15 124/124/15
f 126/126/30 129/129/30 125/125/30
f 124/124/31 127/127/31 123/123/31
f 112/112/30 134/134/30 114/114/30
f 113/113/31 131/131/31 111/111/31
f 114/114/25 133/133/25 113/113/25
f 111/111/15 131/131/15 132/132/15
f 118/118/16 122/122/16 121/121/16
f 114/114/17 118/118/17 116/116/17
f 111/111/18 115/115/18 117/117/18
f 113/113/19 117/117/19 118/118/19
f 111/111/20 112/112/20 116/116/20
f 122/122/21 119/119/21 123/123/21
f 115/115/22 120/120/22 119/119/22
f 117/117/23 119/119/23 122/122/23
f 115/115/24 116/116/24 121/121/24
f 123/123/25 127/127/25 130/130/25
f 121/121/26 125/125/26 124/124/26
f 122/122/27 126/126/27 125/125/27
f 119/119/28 120/120/28 124/124/28
f 129/129/29 130/130/29 127/127/29
f 125/125/15 129/129/15 128/128/15
f 126/126/30 130/130/30 129/129/30
f 124/124/31 128/128/31 127/127/31
f 112/112/30 132/132/30 134/134/30
f 113/113/31 133/133/31 131/131/31
f 114/114/25 134/134/25 133/133/25
