# Blender 3.5.0
# www.blender.org
mtllib NewRoadSide.mtl
o RoadForward
v -1.000000 0.000000 2.000000
v -1.000000 0.000000 -2.000000
v -1.000000 0.150000 -2.000000
v 1.000000 0.150000 -2.000000
v -1.000000 0.000000 -1.000000
v -1.000000 0.150000 1.000000
v -1.000000 0.150000 0.000000
v -1.000000 0.150000 -1.000000
v 1.000000 0.000000 -2.000000
v 0.000000 0.000000 -2.000000
v -0.600000 0.150000 -2.000000
v 0.600000 0.150000 -2.000000
v 1.000000 0.000000 0.000000
v 1.000000 0.150000 -1.000000
v 1.000000 0.150000 0.000000
v 1.000000 0.150000 1.000000
v 0.000000 0.000000 2.000000
v 1.000000 0.000000 2.000000
v 0.600000 0.150000 2.000000
v -0.600000 0.150000 2.000000
v 0.600000 0.150000 -1.000000
v 0.600000 0.150000 0.000000
v 0.600000 0.150000 1.000000
v -0.600000 0.150000 -1.000000
v -0.600000 0.150000 0.000000
v -0.600000 0.150000 1.000000
v -1.000000 0.000000 0.000000
v -1.000000 0.000000 1.000000
v 0.000000 0.000000 -1.000000
v 0.000000 0.000000 0.000000
v 0.000000 0.000000 1.000000
v 1.000000 0.000000 -1.000000
v 1.000000 0.000000 1.000000
v 1.000000 0.150000 2.000000
v -1.000000 0.150000 2.000000
v -1.000000 0.200000 -2.000000
v 1.000000 0.200000 -2.000000
v 1.000000 0.200000 2.000000
v -1.000000 0.200000 2.000000
v -1.000000 0.200000 1.000000
v -1.000000 0.200000 0.000000
v 1.000000 0.200000 -1.000000
v 1.000000 0.200000 1.000000
v 1.000000 0.200000 0.000000
v -1.000000 0.200000 -1.000000
v 0.600000 0.200000 1.000000
v 0.600000 0.200000 2.000000
v 0.600000 0.200000 -2.000000
v 0.600000 0.200000 -1.000000
v 0.600000 0.200000 0.000000
v -0.600000 0.200000 1.000000
v -0.600000 0.200000 2.000000
v -0.600000 0.200000 -2.000000
v -0.600000 0.200000 -1.000000
v -0.600000 0.200000 0.000000
v 0.605000 0.170000 -0.980000
v 0.605000 0.170000 -0.020000
v 0.605000 0.180000 -0.020000
v 0.605000 0.180000 -0.980000
v 0.605000 0.170000 -1.980000
v 0.605000 0.170000 -1.020000
v 0.605000 0.180000 -1.020000
v 0.605000 0.180000 -1.980000
v 0.605000 0.170000 1.020000
v 0.605000 0.170000 1.980000
v 0.605000 0.180000 1.980000
v 0.605000 0.180000 1.020000
v -0.605000 0.170000 0.980000
v -0.605000 0.170000 0.020000
v -0.605000 0.180000 0.020000
v -0.605000 0.180000 0.980000
v -0.605000 0.170000 -0.020000
v -0.605000 0.170000 -0.980000
v -0.605000 0.180000 -0.980000
v -0.605000 0.180000 -0.020000
v -0.605000 0.170000 -1.020000
v -0.605000 0.170000 -1.980000
v -0.605000 0.180000 -1.980000
v -0.605000 0.180000 -1.020000
v 0.605000 0.170000 0.020000
v 0.605000 0.170000 0.980000
v 0.605000 0.180000 0.980000
v 0.605000 0.180000 0.020000
v -0.605000 0.170000 1.980000
v -0.605000 0.170000 1.020000
v -0.605000 0.180000 1.020000
v -0.605000 0.180000 1.980000
v 0.700000 0.200000 1.100000
v 0.700000 0.200000 1.900000
v 0.900000 0.200000 1.900000
v 0.900000 0.200000 1.100000
v 0.700000 0.200000 -1.900000
v 0.700000 0.200000 -1.100000
v 0.900000 0.200000 -1.100000
v 0.900000 0.200000 -1.900000
v 0.700000 0.200000 -0.900000
v 0.700000 0.200000 -0.100000
v 0.900000 0.200000 -0.100000
v 0.900000 0.200000 -0.900000
v 0.700000 0.200000 0.100000
v 0.700000 0.200000 0.900000
v 0.900000 0.200000 0.900000
v 0.900000 0.200000 0.100000
v -0.700000 0.200000 1.900000
v -0.700000 0.200000 1.100000
v -0.900000 0.200000 1.100000
v -0.900000 0.200000 1.900000
v -0.700000 0.200000 -1.100000
v -0.700000 0.200000 -1.900000
v -0.900000 0.200000 -1.900000
v -0.900000 0.200000 -1.100000
v -0.700000 0.200000 -0.100000
v -0.700000 0.200000 -0.900000
v -0.900000 0.200000 -0.900000
v -0.900000 0.200000 -0.100000
v -0.700000 0.200000 0.900000
v -0.700000 0.200000 0.100000
v -0.900000 0.200000 0.100000
v -0.900000 0.200000 0.900000
v -0.100000 0.150000 -2.000000
v 0.100000 0.150000 -2.000000
v 0.000000 0.050000 -2.000000
v 0.100000 0.150000 2.000000
v -0.100000 0.150000 2.000000
v 0.000000 0.050000 2.000000
v -0.100000 0.150000 -1.000000
v 0.100000 0.150000 -1.000000
v -0.100000 0.150000 0.000000
v 0.100000 0.150000 0.000000
v 0.100000 0.150000 1.000000
v -0.100000 0.150000 1.000000
v -0.025000 0.150000 1.075000
v -0.025000 0.150000 1.925000
v 0.025000 0.150000 1.925000
v 0.025000 0.150000 1.075000
v -0.025000 0.150000 -1.925000
v -0.025000 0.150000 -1.075000
v 0.025000 0.150000 -1.075000
v 0.025000 0.150000 -1.925000
v -0.025000 0.150000 -0.925000
v -0.025000 0.150000 -0.075000
v 0.025000 0.150000 -0.075000
v 0.025000 0.150000 -0.925000
v -0.025000 0.150000 0.075000
v -0.025000 0.150000 0.925000
v 0.025000 0.150000 0.925000
v 0.025000 0.150000 0.075000
vn -1.0000 -0.0000 -0.0000
vn 1.0000 -0.0000 -0.0000
vn -0.0000 -0.0000 -1.0000
vn -0.0000 -0.0000 1.0000
vn -0.0000 1.0000 -0.0000
vn -0.0000 -1.0000 -0.0000
vn -0.9701 0.2425 -0.0000
vn -0.9701 -0.0000 -0.2425
vn -0.9701 -0.2425 -0.0000
vn -0.9701 -0.0000 0.2425
vn 0.9701 0.2425 -0.0000
vn 0.9701 -0.0000 0.2425
vn 0.9701 -0.2425 -0.0000
vn 0.9701 -0.0000 -0.2425
vt 0.849457 0.862500
vt 0.762500 0.850000
vt 0.773370 0.812500
vt 0.773370 0.762500
vt 0.849457 0.812500
vt 0.849457 0.800000
vt 0.828261 0.812500
vt 0.828261 0.800000
vt 0.828261 0.775000
vt 0.806522 0.812500
vt 0.773370 0.775000
vt 0.849457 0.825000
vt 0.828261 0.850000
vt 0.828261 0.837500
vt 0.828261 0.825000
vt 0.827717 0.812500
vt 0.849457 0.775000
vt 0.795109 0.762500
vt 0.784239 0.762500
vt 0.849457 0.787500
vt 0.828261 0.795000
vt 0.800000 0.812500
vt 0.099457 0.312500
vt 0.112500 0.312500
vt 0.828261 0.780000
vt 0.800000 0.812500
vt 0.795109 0.787500
vt 0.827717 0.787500
vt 0.806522 0.800000
vt 0.806522 0.787500
vt 0.806522 0.775000
vt 0.784239 0.812500
vt 0.762500 0.837500
vt 0.827717 0.762500
vt 0.795109 0.812500
vt 0.762500 0.825000
vt 0.112500 0.262500
vt 0.783696 0.830000
vt 0.800000 0.862500
vt 0.099457 0.262500
vt 0.783696 0.845000
vt 0.800000 0.862500
vt 0.112500 0.300000
vt 0.800000 0.825000
vt 0.112500 0.287500
vt 0.800000 0.837500
vt 0.112500 0.275000
vt 0.800000 0.850000
vt 0.800000 0.825000
vt 0.099457 0.300000
vt 0.099457 0.287500
vt 0.800000 0.837500
vt 0.099457 0.275000
vt 0.800000 0.850000
vt 0.773370 0.787500
vt 0.849457 0.837500
vt 0.773370 0.800000
vt 0.849457 0.850000
vt 0.784239 0.775000
vt 0.784239 0.787500
vt 0.784239 0.800000
vt 0.795109 0.775000
vt 0.827717 0.800000
vt 0.795109 0.800000
vt 0.827717 0.775000
vt 0.806522 0.762500
vt 0.783696 0.825000
vt 0.783696 0.850000
vt 0.828261 0.862500
vt 0.827717 0.800000
vt 0.827717 0.812500
vt 0.823370 0.862500
vt 0.827717 0.775000
vt 0.805978 0.812500
vt 0.788587 0.862500
vt 0.805978 0.762500
vt 0.784239 0.825000
vt 0.788587 0.812500
vt 0.827717 0.862500
vt 0.784239 0.850000
vt 0.823370 0.812500
vt 0.827717 0.850000
vt 0.823370 0.825000
vt 0.827717 0.837500
vt 0.823370 0.837500
vt 0.805978 0.800000
vt 0.788587 0.850000
vt 0.805978 0.775000
vt 0.788587 0.825000
vt 0.805978 0.787500
vt 0.788587 0.837500
vt 0.827717 0.825000
vt 0.823370 0.850000
vt 0.799457 0.850000
vt 0.784239 0.825000
vt 0.784239 0.830000
vt 0.799457 0.862500
vt 0.784239 0.812500
vt 0.827717 0.780000
vt 0.799457 0.812500
vt 0.784239 0.862500
vt 0.799457 0.825000
vt 0.784239 0.850000
vt 0.799457 0.837500
vt 0.784239 0.837500
vt 0.800543 0.850000
vt 0.827717 0.825000
vt 0.784239 0.845000
vt 0.800543 0.862500
vt 0.827717 0.812500
vt 0.827717 0.795000
vt 0.800543 0.812500
vt 0.827717 0.862500
vt 0.800543 0.825000
vt 0.827717 0.850000
vt 0.800543 0.837500
vt 0.827717 0.837500
vt 0.924783 0.075250
vt 0.799783 0.825250
vt 0.924783 0.087250
vt 0.799783 0.837250
vt 0.924674 0.087250
vt 0.799674 0.837250
vt 0.924674 0.075250
vt 0.799674 0.825250
vt 0.924783 0.062750
vt 0.799783 0.812750
vt 0.924783 0.074750
vt 0.799783 0.824750
vt 0.924674 0.074750
vt 0.799674 0.824750
vt 0.924674 0.062750
vt 0.799674 0.812750
vt 0.924783 0.100250
vt 0.799783 0.850250
vt 0.924783 0.112250
vt 0.799783 0.862250
vt 0.924674 0.112250
vt 0.799674 0.862250
vt 0.924674 0.100250
vt 0.799674 0.850250
vt 0.925217 0.099750
vt 0.800217 0.849750
vt 0.925217 0.087750
vt 0.800217 0.837750
vt 0.925326 0.087750
vt 0.800326 0.837750
vt 0.925326 0.099750
vt 0.800326 0.849750
vt 0.925217 0.087250
vt 0.800217 0.837250
vt 0.925217 0.075250
vt 0.800217 0.825250
vt 0.925326 0.075250
vt 0.800326 0.825250
vt 0.925326 0.087250
vt 0.800326 0.837250
vt 0.925217 0.074750
vt 0.800217 0.824750
vt 0.925217 0.062750
vt 0.800217 0.812750
vt 0.925326 0.062750
vt 0.800326 0.812750
vt 0.925326 0.074750
vt 0.800326 0.824750
vt 0.924783 0.087750
vt 0.799783 0.837750
vt 0.924783 0.099750
vt 0.799783 0.849750
vt 0.924674 0.099750
vt 0.799674 0.849750
vt 0.924674 0.087750
vt 0.799674 0.837750
vt 0.925217 0.112250
vt 0.800217 0.862250
vt 0.925217 0.100250
vt 0.800217 0.850250
vt 0.925326 0.100250
vt 0.800326 0.850250
vt 0.925326 0.112250
vt 0.800326 0.862250
vt 0.660326 0.823750
vt 0.785326 0.823750
vt 0.660326 0.813750
vt 0.785326 0.813750
vt 0.662500 0.813750
vt 0.787500 0.813750
vt 0.662500 0.823750
vt 0.787500 0.823750
vt 0.660326 0.861250
vt 0.785326 0.861250
vt 0.660326 0.851250
vt 0.785326 0.851250
vt 0.662500 0.851250
vt 0.787500 0.851250
vt 0.662500 0.861250
vt 0.787500 0.861250
vt 0.660326 0.848750
vt 0.785326 0.848750
vt 0.660326 0.838750
vt 0.785326 0.838750
vt 0.662500 0.838750
vt 0.787500 0.838750
vt 0.662500 0.848750
vt 0.787500 0.848750
vt 0.660326 0.836250
vt 0.785326 0.836250
vt 0.660326 0.826250
vt 0.785326 0.826250
vt 0.662500 0.826250
vt 0.787500 0.826250
vt 0.662500 0.836250
vt 0.787500 0.836250
vt 0.701630 0.813750
vt 0.826630 0.813750
vt 0.701630 0.823750
vt 0.826630 0.823750
vt 0.699457 0.823750
vt 0.824457 0.823750
vt 0.699457 0.813750
vt 0.824457 0.813750
vt 0.701630 0.851250
vt 0.826630 0.851250
vt 0.701630 0.861250
vt 0.826630 0.861250
vt 0.699457 0.861250
vt 0.824457 0.861250
vt 0.699457 0.851250
vt 0.824457 0.851250
vt 0.701630 0.838750
vt 0.826630 0.838750
vt 0.701630 0.848750
vt 0.826630 0.848750
vt 0.699457 0.848750
vt 0.824457 0.848750
vt 0.699457 0.838750
vt 0.824457 0.838750
vt 0.701630 0.826250
vt 0.826630 0.826250
vt 0.701630 0.836250
vt 0.826630 0.836250
vt 0.699457 0.836250
vt 0.824457 0.836250
vt 0.699457 0.826250
vt 0.824457 0.826250
vt 0.828261 0.788750
vt 0.104891 0.312500
vt 0.828261 0.787500
vt 0.828261 0.786250
vt 0.107065 0.312500
vt 0.829348 0.787500
vt 0.783696 0.836250
vt 0.107065 0.262500
vt 0.783696 0.837500
vt 0.783696 0.838750
vt 0.104891 0.262500
vt 0.782609 0.837500
vt 0.104891 0.300000
vt 0.107065 0.300000
vt 0.104891 0.287500
vt 0.107065 0.287500
vt 0.107065 0.275000
vt 0.104891 0.275000
vt 0.980707 0.649063
vt 0.105707 0.274062
vt 0.980707 0.638438
vt 0.105707 0.263438
vt 0.981250 0.638438
vt 0.106250 0.263438
vt 0.981250 0.649063
vt 0.106250 0.274063
vt 0.980707 0.686563
vt 0.105707 0.311563
vt 0.980707 0.675937
vt 0.105707 0.300937
vt 0.981250 0.675937
vt 0.106250 0.300937
vt 0.981250 0.686563
vt 0.106250 0.311563
vt 0.980707 0.674062
vt 0.105707 0.299062
vt 0.980707 0.663438
vt 0.105707 0.288438
vt 0.981250 0.663438
vt 0.106250 0.288438
vt 0.981250 0.674062
vt 0.106250 0.299062
vt 0.980707 0.661563
vt 0.105707 0.286563
vt 0.980707 0.650937
vt 0.105707 0.275937
vt 0.981250 0.650937
vt 0.106250 0.275937
vt 0.981250 0.661563
vt 0.106250 0.286563
s 1
usemtl Placeable
f 8/15/1 2/5/1 5/12/1
f 16/31/2 18/34/2 33/65/2
f 12/25/3 37/73/3 4/9/3
f 35/69/1 40/82/1 6/13/1
f 20/41/4 1/2/4 17/33/4
f 130/262/5 19/37/5 23/47/5
f 57/120/1 59/124/1 56/118/1
f 61/128/1 63/132/1 60/126/1
f 26/53/5 124/256/5 131/263/5
f 25/51/5 131/263/5 128/260/5
f 12/25/3 9/17/3 10/20/3
f 127/259/5 22/45/5 21/43/5
f 129/261/5 23/47/5 22/45/5
f 3/8/3 53/111/3 11/21/3
f 65/136/1 67/140/1 64/134/1
f 31/61/6 1/3/6 28/57/6
f 33/64/6 17/32/6 31/61/6
f 10/19/6 5/11/6 2/4/6
f 29/59/6 27/55/6 5/11/6
f 30/60/6 28/57/6 27/55/6
f 9/18/6 29/59/6 10/19/6
f 32/62/6 30/60/6 29/59/6
f 13/27/6 31/61/6 30/60/6
f 19/38/4 125/257/4 18/36/4
f 4/10/2 32/63/2 9/16/2
f 14/29/2 13/28/2 32/63/2
f 15/30/2 33/65/2 13/28/2
f 11/21/3 122/251/3 2/6/3
f 24/50/5 128/260/5 126/258/5
f 35/69/1 28/58/1 1/1/1
f 6/13/1 27/56/1 28/58/1
f 7/14/1 5/12/1 27/56/1
f 15/30/2 43/88/2 16/31/2
f 69/144/2 71/148/2 68/142/2
f 14/29/2 44/90/2 15/30/2
f 73/152/2 75/156/2 72/150/2
f 20/41/4 39/80/4 35/68/4
f 4/10/2 42/86/2 14/29/2
f 77/160/2 79/164/2 76/158/2
f 121/250/5 21/43/5 12/24/5
f 89/184/5 91/188/5 88/182/5
f 93/192/5 95/196/5 92/190/5
f 97/200/5 99/204/5 96/198/5
f 101/208/5 103/212/5 100/206/5
f 105/216/5 107/220/5 104/214/5
f 109/224/5 111/228/5 108/222/5
f 113/232/5 115/236/5 112/230/5
f 117/240/5 119/244/5 116/238/5
f 16/31/2 38/76/2 34/66/2
f 81/168/1 83/172/1 80/166/1
f 6/13/1 41/84/1 7/14/1
f 34/67/4 47/96/4 19/38/4
f 85/176/2 87/180/2 84/174/2
f 8/15/1 36/71/1 3/7/1
f 7/14/1 45/92/1 8/15/1
f 22/46/7 56/119/7 21/44/7
f 50/104/8 57/121/8 22/46/8
f 49/102/9 58/123/9 50/104/9
f 21/44/10 59/125/10 49/102/10
f 21/44/7 60/127/7 12/26/7
f 49/102/8 61/129/8 21/44/8
f 49/102/9 63/133/9 62/131/9
f 12/26/10 63/133/10 48/100/10
f 23/48/7 65/137/7 64/135/7
f 47/97/8 65/137/8 19/39/8
f 46/94/9 66/139/9 47/97/9
f 23/48/10 67/141/10 46/94/10
f 25/52/11 68/143/11 26/54/11
f 55/116/12 69/145/12 25/52/12
f 51/106/13 70/147/13 55/116/13
f 26/54/14 71/149/14 51/106/14
f 24/49/11 72/151/11 25/52/11
f 54/114/12 73/153/12 24/49/12
f 55/116/13 74/155/13 54/114/13
f 25/52/14 75/157/14 55/116/14
f 24/49/11 77/161/11 76/159/11
f 53/112/12 77/161/12 11/22/12
f 54/114/13 78/163/13 53/112/13
f 24/49/14 79/165/14 54/114/14
f 23/48/7 80/167/7 22/46/7
f 46/94/8 81/169/8 23/48/8
f 50/104/9 82/171/9 46/94/9
f 22/46/10 83/173/10 50/104/10
f 26/54/11 84/175/11 20/42/11
f 51/106/12 85/177/12 26/54/12
f 51/106/13 87/181/13 86/179/13
f 20/42/14 87/181/14 52/109/14
f 47/98/5 88/183/5 46/95/5
f 38/78/5 89/185/5 47/98/5
f 43/89/5 90/187/5 38/78/5
f 46/95/5 91/189/5 43/89/5
f 49/103/5 92/191/5 48/101/5
f 42/87/5 93/193/5 49/103/5
f 37/75/5 94/195/5 42/87/5
f 48/101/5 95/197/5 37/75/5
f 50/105/5 96/199/5 49/103/5
f 44/91/5 97/201/5 50/105/5
f 42/87/5 98/203/5 44/91/5
f 49/103/5 99/205/5 42/87/5
f 46/95/5 100/207/5 50/105/5
f 43/89/5 101/209/5 46/95/5
f 44/91/5 102/211/5 43/89/5
f 50/105/5 103/213/5 44/91/5
f 51/107/5 104/215/5 52/110/5
f 40/83/5 105/217/5 51/107/5
f 39/81/5 106/219/5 40/83/5
f 52/110/5 107/221/5 39/81/5
f 53/113/5 108/223/5 54/115/5
f 36/72/5 109/225/5 53/113/5
f 45/93/5 110/227/5 36/72/5
f 54/115/5 111/229/5 45/93/5
f 54/115/5 112/231/5 55/117/5
f 45/93/5 113/233/5 54/115/5
f 41/85/5 114/235/5 45/93/5
f 55/117/5 115/237/5 41/85/5
f 55/117/5 116/239/5 51/107/5
f 41/85/5 117/241/5 55/117/5
f 40/83/5 118/243/5 41/85/5
f 51/107/5 119/245/5 40/83/5
f 120/246/3 121/248/3 122/251/3
f 123/252/4 124/254/4 125/257/4
f 133/266/5 135/270/5 132/264/5
f 137/274/5 139/278/5 136/272/5
f 141/282/5 143/286/5 140/280/5
f 145/290/5 147/294/5 144/288/5
f 11/23/5 126/258/5 120/247/5
f 124/256/5 132/265/5 131/263/5
f 123/253/5 133/267/5 124/256/5
f 130/262/5 134/269/5 123/253/5
f 131/263/5 135/271/5 130/262/5
f 126/258/5 136/273/5 120/247/5
f 127/259/5 137/275/5 126/258/5
f 121/250/5 138/277/5 127/259/5
f 120/247/5 139/279/5 121/250/5
f 128/260/5 140/281/5 126/258/5
f 129/261/5 141/283/5 128/260/5
f 127/259/5 142/285/5 129/261/5
f 126/258/5 143/287/5 127/259/5
f 131/263/5 144/289/5 128/260/5
f 130/262/5 145/291/5 131/263/5
f 129/261/5 146/293/5 130/262/5
f 128/260/5 147/295/5 129/261/5
f 8/15/1 3/7/1 2/5/1
f 16/31/2 34/66/2 18/34/2
f 12/25/3 48/99/3 37/73/3
f 35/69/1 39/79/1 40/82/1
f 17/33/4 125/257/4 124/255/4
f 20/41/4 35/68/4 1/2/4
f 17/33/4 124/255/4 20/41/4
f 130/262/5 123/253/5 19/37/5
f 57/120/1 58/122/1 59/124/1
f 61/128/1 62/130/1 63/132/1
f 26/53/5 20/40/5 124/256/5
f 25/51/5 26/53/5 131/263/5
f 10/20/3 122/251/3 121/249/3
f 12/25/3 4/9/3 9/17/3
f 10/20/3 121/249/3 12/25/3
f 127/259/5 129/261/5 22/45/5
f 129/261/5 130/262/5 23/47/5
f 3/8/3 36/70/3 53/111/3
f 65/136/1 66/138/1 67/140/1
f 31/61/6 17/32/6 1/3/6
f 33/64/6 18/35/6 17/32/6
f 10/19/6 29/59/6 5/11/6
f 29/59/6 30/60/6 27/55/6
f 30/60/6 31/61/6 28/57/6
f 9/18/6 32/62/6 29/59/6
f 32/62/6 13/27/6 30/60/6
f 13/27/6 33/64/6 31/61/6
f 19/38/4 123/252/4 125/257/4
f 125/257/4 17/33/4 18/36/4
f 18/36/4 34/67/4 19/38/4
f 4/10/2 14/29/2 32/63/2
f 14/29/2 15/30/2 13/28/2
f 15/30/2 16/31/2 33/65/2
f 11/21/3 120/246/3 122/251/3
f 122/251/3 10/20/3 2/6/3
f 2/6/3 3/8/3 11/21/3
f 24/50/5 25/51/5 128/260/5
f 35/69/1 6/13/1 28/58/1
f 6/13/1 7/14/1 27/56/1
f 7/14/1 8/15/1 5/12/1
f 15/30/2 44/90/2 43/88/2
f 69/144/2 70/146/2 71/148/2
f 14/29/2 42/86/2 44/90/2
f 73/152/2 74/154/2 75/156/2
f 20/41/4 52/108/4 39/80/4
f 4/10/2 37/74/2 42/86/2
f 77/160/2 78/162/2 79/164/2
f 121/250/5 127/259/5 21/43/5
f 89/184/5 90/186/5 91/188/5
f 93/192/5 94/194/5 95/196/5
f 97/200/5 98/202/5 99/204/5
f 101/208/5 102/210/5 103/212/5
f 105/216/5 106/218/5 107/220/5
f 109/224/5 110/226/5 111/228/5
f 113/232/5 114/234/5 115/236/5
f 117/240/5 118/242/5 119/244/5
f 16/31/2 43/88/2 38/76/2
f 81/168/1 82/170/1 83/172/1
f 6/13/1 40/82/1 41/84/1
f 34/67/4 38/77/4 47/96/4
f 85/176/2 86/178/2 87/180/2
f 8/15/1 45/92/1 36/71/1
f 7/14/1 41/84/1 45/92/1
f 22/46/7 57/121/7 56/119/7
f 50/104/8 58/123/8 57/121/8
f 49/102/9 59/125/9 58/123/9
f 21/44/10 56/119/10 59/125/10
f 21/44/7 61/129/7 60/127/7
f 49/102/8 62/131/8 61/129/8
f 49/102/9 48/100/9 63/133/9
f 12/26/10 60/127/10 63/133/10
f 23/48/7 19/39/7 65/137/7
f 47/97/8 66/139/8 65/137/8
f 46/94/9 67/141/9 66/139/9
f 23/48/10 64/135/10 67/141/10
f 25/52/11 69/145/11 68/143/11
f 55/116/12 70/147/12 69/145/12
f 51/106/13 71/149/13 70/147/13
f 26/54/14 68/143/14 71/149/14
f 24/49/11 73/153/11 72/151/11
f 54/114/12 74/155/12 73/153/12
f 55/116/13 75/157/13 74/155/13
f 25/52/14 72/151/14 75/157/14
f 24/49/11 11/22/11 77/161/11
f 53/112/12 78/163/12 77/161/12
f 54/114/13 79/165/13 78/163/13
f 24/49/14 76/159/14 79/165/14
f 23/48/7 81/169/7 80/167/7
f 46/94/8 82/171/8 81/169/8
f 50/104/9 83/173/9 82/171/9
f 22/46/10 80/167/10 83/173/10
f 26/54/11 85/177/11 84/175/11
f 51/106/12 86/179/12 85/177/12
f 51/106/13 52/109/13 87/181/13
f 20/42/14 84/175/14 87/181/14
f 47/98/5 89/185/5 88/183/5
f 38/78/5 90/187/5 89/185/5
f 43/89/5 91/189/5 90/187/5
f 46/95/5 88/183/5 91/189/5
f 49/103/5 93/193/5 92/191/5
f 42/87/5 94/195/5 93/193/5
f 37/75/5 95/197/5 94/195/5
f 48/101/5 92/191/5 95/197/5
f 50/105/5 97/201/5 96/199/5
f 44/91/5 98/203/5 97/201/5
f 42/87/5 99/205/5 98/203/5
f 49/103/5 96/199/5 99/205/5
f 46/95/5 101/209/5 100/207/5
f 43/89/5 102/211/5 101/209/5
f 44/91/5 103/213/5 102/211/5
f 50/105/5 100/207/5 103/213/5
f 51/107/5 105/217/5 104/215/5
f 40/83/5 106/219/5 105/217/5
f 39/81/5 107/221/5 106/219/5
f 52/110/5 104/215/5 107/221/5
f 53/113/5 109/225/5 108/223/5
f 36/72/5 110/227/5 109/225/5
f 45/93/5 111/229/5 110/227/5
f 54/115/5 108/223/5 111/229/5
f 54/115/5 113/233/5 112/231/5
f 45/93/5 114/235/5 113/233/5
f 41/85/5 115/237/5 114/235/5
f 55/117/5 112/231/5 115/237/5
f 55/117/5 117/241/5 116/239/5
f 41/85/5 118/243/5 117/241/5
f 40/83/5 119/245/5 118/243/5
f 51/107/5 116/239/5 119/245/5
f 133/266/5 134/268/5 135/270/5
f 137/274/5 138/276/5 139/278/5
f 141/282/5 142/284/5 143/286/5
f 145/290/5 146/292/5 147/294/5
f 11/23/5 24/50/5 126/258/5
f 124/256/5 133/267/5 132/265/5
f 123/253/5 134/269/5 133/267/5
f 130/262/5 135/271/5 134/269/5
f 131/263/5 132/265/5 135/271/5
f 126/258/5 137/275/5 136/273/5
f 127/259/5 138/277/5 137/275/5
f 121/250/5 139/279/5 138/277/5
f 120/247/5 136/273/5 139/279/5
f 128/260/5 141/283/5 140/281/5
f 129/261/5 142/285/5 141/283/5
f 127/259/5 143/287/5 142/285/5
f 126/258/5 140/281/5 143/287/5
f 131/263/5 145/291/5 144/289/5
f 130/262/5 146/293/5 145/291/5
f 129/261/5 147/295/5 146/293/5
f 128/260/5 144/289/5 147/295/5
