# Blender 3.5.0
# www.blender.org
mtllib sign1.mtl
o Cylinder
v -0.200000 0.876000 0.036000
v -0.184776 0.952536 0.036000
v -0.141421 1.017421 0.036000
v -0.076537 1.060776 0.036000
v -0.000000 1.076000 0.036000
v 0.076537 1.060776 0.036000
v 0.141421 1.017421 0.036000
v 0.184776 0.952537 0.036000
v 0.200000 0.876000 0.036000
v 0.184776 0.799463 0.036000
v 0.141421 0.734579 0.036000
v 0.076537 0.691224 0.036000
v 0.000000 0.676000 0.036000
v -0.076537 0.691224 0.036000
v -0.141421 0.734579 0.036000
v -0.184776 0.799463 0.036000
v -0.200000 0.876000 0.044000
v -0.184776 0.952536 0.044000
v -0.141421 1.017421 0.044000
v -0.076537 1.060776 0.044000
v -0.000000 1.076000 0.044000
v 0.076537 1.060776 0.044000
v 0.141421 1.017421 0.044000
v 0.184776 0.952537 0.044000
v 0.200000 0.876000 0.044000
v 0.184776 0.799463 0.044000
v 0.141421 0.734579 0.044000
v 0.076537 0.691224 0.044000
v 0.000000 0.676000 0.044000
v -0.076537 0.691224 0.044000
v -0.141421 0.734579 0.044000
v -0.184776 0.799463 0.044000
v 0.000000 -0.000000 -0.020000
v 0.000000 1.029833 -0.020000
v 0.014142 -0.000000 -0.014142
v 0.014142 1.029833 -0.014142
v 0.020000 -0.000000 0.000000
v 0.020000 1.029833 0.000000
v 0.014142 -0.000000 0.014142
v 0.014142 1.029833 0.014142
v -0.000000 -0.000000 0.020000
v -0.000000 1.029833 0.020000
v -0.014142 -0.000000 0.014142
v -0.014142 1.029833 0.014142
v -0.020000 -0.000000 -0.000000
v -0.020000 1.029833 -0.000000
v -0.014142 -0.000000 -0.014142
v -0.014142 1.029833 -0.014142
v 0.000000 0.960000 -0.020000
v 0.014142 0.960000 -0.014142
v 0.020000 0.960000 0.000000
v 0.014142 0.960000 0.014142
v -0.000000 0.960000 0.020000
v -0.014142 0.960000 0.014142
v -0.020000 0.960000 -0.000000
v -0.014142 0.960000 -0.014142
v 0.014142 0.948000 -0.014142
v 0.020000 0.948000 0.000000
v 0.014142 0.948000 0.014142
v -0.000000 0.948000 0.020000
v -0.014142 0.948000 0.014142
v -0.020000 0.948000 -0.000000
v -0.014142 0.948000 -0.014142
v 0.000000 0.948000 -0.020000
v 0.014142 0.805800 -0.014142
v 0.020000 0.805800 0.000000
v 0.014142 0.805800 0.014142
v -0.000000 0.805800 0.020000
v -0.014142 0.805800 0.014142
v -0.020000 0.805800 -0.000000
v -0.014142 0.805800 -0.014142
v 0.000000 0.805800 -0.020000
v 0.014142 0.790900 -0.014142
v 0.020000 0.790900 0.000000
v 0.014142 0.790900 0.014142
v -0.000000 0.790900 0.020000
v -0.014142 0.790900 0.014142
v -0.020000 0.790900 -0.000000
v -0.014142 0.790900 -0.014142
v 0.000000 0.790900 -0.020000
v 0.016971 0.805800 -0.016971
v 0.024000 0.805800 0.000000
v 0.016971 0.805800 0.016971
v -0.000000 0.805800 0.024000
v -0.016971 0.805800 0.016971
v -0.024000 0.805800 -0.000000
v -0.016971 0.805800 -0.016971
v 0.000000 0.805800 -0.024000
v 0.016971 0.790900 -0.016971
v 0.024000 0.790900 0.000000
v 0.016971 0.790900 0.016971
v -0.000000 0.790900 0.024000
v -0.016971 0.790900 0.016971
v -0.024000 0.790900 -0.000000
v -0.016971 0.790900 -0.016971
v 0.000000 0.790900 -0.024000
v 0.000000 0.960000 -0.024000
v 0.016971 0.960000 -0.016971
v 0.024000 0.960000 0.000000
v 0.016971 0.960000 0.016971
v -0.000000 0.960000 0.024000
v -0.016971 0.960000 0.016971
v -0.024000 0.960000 -0.000000
v -0.016971 0.960000 -0.016971
v 0.016971 0.948000 -0.016971
v 0.024000 0.948000 0.000000
v 0.016971 0.948000 0.016971
v -0.000000 0.948000 0.024000
v -0.016971 0.948000 0.016971
v -0.024000 0.948000 -0.000000
v -0.016971 0.948000 -0.016971
v 0.000000 0.948000 -0.024000
v 0.016971 0.805800 0.039996
v -0.000000 0.805800 0.040000
v -0.016971 0.805800 0.039996
v 0.016971 0.790900 0.039996
v -0.000000 0.790900 0.040000
v -0.016971 0.790900 0.039996
v 0.016971 0.960000 0.039996
v -0.000000 0.960000 0.040000
v -0.016971 0.960000 0.039996
v 0.016971 0.948000 0.039996
v -0.000000 0.948000 0.040000
v -0.016971 0.948000 0.039996
vn 0.8315 0.5556 -0.0000
vn -0.8315 -0.5556 -0.0000
vn 0.9808 0.1951 -0.0000
vn -0.9808 0.1951 -0.0000
vn -0.9808 -0.1951 -0.0000
vn 0.9808 -0.1951 -0.0000
vn -0.8315 0.5556 -0.0000
vn 0.8315 -0.5556 -0.0000
vn -0.5556 0.8315 -0.0000
vn 0.5556 -0.8315 -0.0000
vn -0.1951 0.9808 -0.0000
vn 0.1951 -0.9808 -0.0000
vn 0.1951 0.9808 -0.0000
vn -0.1951 -0.9808 -0.0000
vn 0.5556 0.8315 -0.0000
vn -0.5556 -0.8315 -0.0000
vn -0.0000 -0.0000 1.0000
vn -0.0000 -0.0000 -1.0000
vn 0.3827 -0.0000 -0.9239
vn 0.9239 -0.0000 -0.3827
vn 0.9239 -0.0000 0.3827
vn 0.3827 -0.0000 0.9239
vn -0.3827 -0.0000 0.9239
vn -0.9239 -0.0000 0.3827
vn -0.0000 1.0000 -0.0000
vn -0.9239 -0.0000 -0.3827
vn -0.3827 -0.0000 -0.9239
vn -0.0000 -1.0000 -0.0000
vn 1.0000 -0.0000 -0.0000
vn -1.0000 -0.0000 -0.0000
vt 0.000000 0.000000
vt 0.000000 0.000000
vt 0.000000 0.000000
vt 0.000000 0.000000
vt 0.000000 0.000000
vt 0.000000 0.000000
vt 0.000000 0.000000
vt 0.000000 0.000000
vt 0.000000 0.000000
vt 0.000000 0.000000
vt 0.000000 0.000000
vt 0.000000 0.000000
vt 0.000000 0.000000
vt 0.000000 0.000000
vt 0.000000 0.000000
vt 0.000000 0.000000
vt 0.000000 0.000000
vt 0.016589 0.493672
vt 0.000000 0.000000
vt 0.050965 0.679146
vt 0.000000 0.000000
vt 0.153702 0.837348
vt 0.000000 0.000000
vt 0.309160 0.944191
vt 0.000000 0.000000
vt 0.493671 0.983410
vt 0.000000 0.000000
vt 0.679146 0.949034
vt 0.000000 0.000000
vt 0.837348 0.846297
vt 0.000000 0.000000
vt 0.944191 0.690839
vt 0.000000 0.000000
vt 0.983410 0.506328
vt 0.000000 0.000000
vt 0.949035 0.320853
vt 0.000000 0.000000
vt 0.846297 0.162651
vt 0.000000 0.000000
vt 0.690840 0.055808
vt 0.000000 0.000000
vt 0.506329 0.016589
vt 0.000000 0.000000
vt 0.320853 0.050965
vt 0.000000 0.000000
vt 0.162652 0.153702
vt 0.000000 0.000000
vt 0.055809 0.309160
vt 0.000000 0.000000
vt 0.000000 0.000000
vt 0.000000 0.000000
vt 0.000000 0.000000
vt 0.000000 0.000000
vt 0.000000 0.000000
vt 0.000000 0.000000
vt 0.000000 0.000000
vt 0.000000 0.000000
vt 0.000000 0.000000
vt 0.000000 0.000000
vt 0.000000 0.000000
vt 0.000000 0.000000
vt 0.000000 0.000000
vt 0.000000 0.000000
vt 0.000000 0.000000
vt 0.000000 0.000000
vt 0.000000 0.000000
vt 0.000000 0.000000
vt 0.000000 0.000000
vt 0.000000 0.000000
vt 0.000000 0.000000
vt 0.000000 0.000000
vt 0.000000 0.000000
vt 0.000000 0.000000
vt 0.000000 0.000000
vt 0.000000 0.000000
vt 0.000000 0.000000
vt 0.000000 0.000000
vt 0.000000 0.000000
vt 0.000000 0.000000
vt 0.000000 0.000000
vt 0.000000 0.000000
vt 0.000000 0.000000
vt 0.000000 0.000000
vt 0.000000 0.000000
vt 0.000000 0.000000
vt 0.000000 0.000000
vt 0.000000 0.000000
vt 0.000000 0.000000
vt 0.000000 0.000000
vt 0.000000 0.000000
vt 0.000000 0.000000
vt 0.000000 0.000000
vt 0.000000 0.000000
vt 0.000000 0.000000
vt 0.000000 0.000000
vt 0.000000 0.000000
vt 0.000000 0.000000
vt 0.000000 0.000000
vt 0.000000 0.000000
vt 0.000000 0.000000
vt 0.000000 0.000000
vt 0.000000 0.000000
vt 0.000000 0.000000
vt 0.000000 0.000000
vt 0.000000 0.000000
vt 0.000000 0.000000
vt 0.000000 0.000000
vt 0.000000 0.000000
vt 0.000000 0.000000
vt 0.000000 0.000000
vt 0.000000 0.000000
vt 0.000000 0.000000
vt 0.000000 0.000000
vt 0.000000 0.000000
vt 0.000000 0.000000
vt 0.000000 0.000000
vt 0.000000 0.000000
vt 0.000000 0.000000
vt 0.000000 0.000000
vt 0.000000 0.000000
vt 0.000000 0.000000
vt 0.000000 0.000000
vt 0.000000 0.000000
vt 0.000000 0.000000
vt 0.000000 0.000000
vt 0.000000 0.000000
vt 0.000000 0.000000
vt 0.000000 0.000000
vt 0.000000 0.000000
vt 0.000000 0.000000
vt 0.000000 0.000000
vt 0.000000 0.000000
vt 0.000000 0.000000
vt 0.000000 0.000000
vt 0.000000 0.000000
vt 0.000000 0.000000
vt 0.000000 0.000000
vt 0.000000 0.000000
vt 0.000000 0.000000
vt 0.000000 0.000000
s 1
usemtl Material.002
f 9/9/18 13/13/18 1/1/18
f 34/50/19 50/66/19 49/65/19
f 36/52/20 51/67/20 50/66/20
f 38/54/21 52/68/21 51/67/21
f 40/56/22 53/69/22 52/68/22
f 42/58/23 54/70/23 53/69/23
f 44/60/24 55/71/24 54/70/24
f 46/62/25 42/58/25 38/54/25
f 46/62/26 56/72/26 55/71/26
f 48/64/27 49/65/27 56/72/27
f 60/76/28 109/125/28 61/77/28
f 51/67/25 100/116/25 99/115/25
f 59/75/28 108/124/28 60/76/28
f 53/69/25 100/116/25 52/68/25
f 58/74/28 107/123/28 59/75/28
f 54/70/25 101/117/25 53/69/25
f 57/73/28 106/122/28 58/74/28
f 54/70/25 103/119/25 102/118/25
f 64/80/19 65/81/19 72/88/19
f 57/73/20 66/82/20 65/81/20
f 58/74/21 67/83/21 66/82/21
f 59/75/22 68/84/22 67/83/22
f 60/76/23 69/85/23 68/84/23
f 61/77/24 70/86/24 69/85/24
f 62/78/26 71/87/26 70/86/26
f 63/79/27 72/88/27 71/87/27
f 73/89/28 90/106/28 74/90/28
f 69/85/25 86/102/25 85/101/25
f 73/89/28 96/112/28 89/105/28
f 70/86/25 87/103/25 86/102/25
f 79/95/28 96/112/28 80/96/28
f 72/88/25 87/103/25 71/87/25
f 78/94/28 95/111/28 79/95/28
f 65/81/25 88/104/25 72/88/25
f 80/96/19 35/51/19 33/49/19
f 73/89/20 37/53/20 35/51/20
f 74/90/21 39/55/21 37/53/21
f 75/91/22 41/57/22 39/55/22
f 76/92/23 43/59/23 41/57/23
f 77/93/24 45/61/24 43/59/24
f 78/94/26 47/63/26 45/61/26
f 79/95/27 33/49/27 47/63/27
f 87/103/27 96/112/27 95/111/27
f 86/102/26 95/111/26 94/110/26
f 85/101/24 94/110/24 93/109/24
f 100/116/29 122/138/29 107/123/29
f 92/108/28 116/132/28 117/133/28
f 82/98/21 91/107/21 90/106/21
f 81/97/20 90/106/20 89/105/20
f 88/104/19 89/105/19 96/112/19
f 69/85/25 84/100/25 68/84/25
f 74/90/28 91/107/28 75/91/28
f 68/84/25 83/99/25 67/83/25
f 75/91/28 92/108/28 76/92/28
f 66/82/25 83/99/25 82/98/25
f 76/92/28 93/109/28 77/93/28
f 65/81/25 82/98/25 81/97/25
f 77/93/28 94/110/28 78/94/28
f 104/120/27 112/128/27 111/127/27
f 103/119/26 111/127/26 110/126/26
f 102/118/24 110/126/24 109/125/24
f 101/117/25 121/137/25 120/136/25
f 84/100/25 113/129/25 83/99/25
f 99/115/21 107/123/21 106/122/21
f 98/114/20 106/122/20 105/121/20
f 97/113/19 105/121/19 112/128/19
f 50/66/25 99/115/25 98/114/25
f 61/77/28 110/126/28 62/78/28
f 50/66/25 97/113/25 49/65/25
f 62/78/28 111/127/28 63/79/28
f 49/65/25 104/120/25 56/72/25
f 63/79/28 112/128/28 64/80/28
f 55/71/25 104/120/25 103/119/25
f 57/73/28 112/128/28 105/121/28
f 93/109/30 115/131/30 85/101/30
f 92/108/28 118/134/28 93/109/28
f 101/117/25 119/135/25 100/116/25
f 108/124/28 122/138/28 123/139/28
f 84/100/25 115/131/25 114/130/25
f 109/125/30 121/137/30 102/118/30
f 83/99/29 116/132/29 91/107/29
f 108/124/28 124/140/28 109/125/28
f 1/1/18 2/2/18 3/3/18
f 3/3/18 4/4/18 5/5/18
f 5/5/18 6/6/18 7/7/18
f 7/7/18 8/8/18 9/9/18
f 9/9/18 10/10/18 11/11/18
f 11/11/18 12/12/18 13/13/18
f 13/13/18 14/14/18 15/15/18
f 15/15/18 16/16/18 1/1/18
f 1/1/18 3/3/18 5/5/18
f 5/5/18 7/7/18 9/9/18
f 9/9/18 11/11/18 13/13/18
f 13/13/18 15/15/18 1/1/18
f 1/1/18 5/5/18 9/9/18
f 34/50/19 36/52/19 50/66/19
f 36/52/20 38/54/20 51/67/20
f 38/54/21 40/56/21 52/68/21
f 40/56/22 42/58/22 53/69/22
f 42/58/23 44/60/23 54/70/23
f 44/60/24 46/62/24 55/71/24
f 38/54/25 36/52/25 34/50/25
f 34/50/25 48/64/25 46/62/25
f 46/62/25 44/60/25 42/58/25
f 42/58/25 40/56/25 38/54/25
f 38/54/25 34/50/25 46/62/25
f 46/62/26 48/64/26 56/72/26
f 48/64/27 34/50/27 49/65/27
f 60/76/28 108/124/28 109/125/28
f 51/67/25 52/68/25 100/116/25
f 59/75/28 107/123/28 108/124/28
f 53/69/25 101/117/25 100/116/25
f 58/74/28 106/122/28 107/123/28
f 54/70/25 102/118/25 101/117/25
f 57/73/28 105/121/28 106/122/28
f 54/70/25 55/71/25 103/119/25
f 64/80/19 57/73/19 65/81/19
f 57/73/20 58/74/20 66/82/20
f 58/74/21 59/75/21 67/83/21
f 59/75/22 60/76/22 68/84/22
f 60/76/23 61/77/23 69/85/23
f 61/77/24 62/78/24 70/86/24
f 62/78/26 63/79/26 71/87/26
f 63/79/27 64/80/27 72/88/27
f 73/89/28 89/105/28 90/106/28
f 69/85/25 70/86/25 86/102/25
f 73/89/28 80/96/28 96/112/28
f 70/86/25 71/87/25 87/103/25
f 79/95/28 95/111/28 96/112/28
f 72/88/25 88/104/25 87/103/25
f 78/94/28 94/110/28 95/111/28
f 65/81/25 81/97/25 88/104/25
f 80/96/19 73/89/19 35/51/19
f 73/89/20 74/90/20 37/53/20
f 74/90/21 75/91/21 39/55/21
f 75/91/22 76/92/22 41/57/22
f 76/92/23 77/93/23 43/59/23
f 77/93/24 78/94/24 45/61/24
f 78/94/26 79/95/26 47/63/26
f 79/95/27 80/96/27 33/49/27
f 87/103/27 88/104/27 96/112/27
f 86/102/26 87/103/26 95/111/26
f 85/101/24 86/102/24 94/110/24
f 100/116/29 119/135/29 122/138/29
f 92/108/28 91/107/28 116/132/28
f 82/98/21 83/99/21 91/107/21
f 81/97/20 82/98/20 90/106/20
f 88/104/19 81/97/19 89/105/19
f 69/85/25 85/101/25 84/100/25
f 74/90/28 90/106/28 91/107/28
f 68/84/25 84/100/25 83/99/25
f 75/91/28 91/107/28 92/108/28
f 66/82/25 67/83/25 83/99/25
f 76/92/28 92/108/28 93/109/28
f 65/81/25 66/82/25 82/98/25
f 77/93/28 93/109/28 94/110/28
f 104/120/27 97/113/27 112/128/27
f 103/119/26 104/120/26 111/127/26
f 102/118/24 103/119/24 110/126/24
f 101/117/25 102/118/25 121/137/25
f 84/100/25 114/130/25 113/129/25
f 99/115/21 100/116/21 107/123/21
f 98/114/20 99/115/20 106/122/20
f 97/113/19 98/114/19 105/121/19
f 50/66/25 51/67/25 99/115/25
f 61/77/28 109/125/28 110/126/28
f 50/66/25 98/114/25 97/113/25
f 62/78/28 110/126/28 111/127/28
f 49/65/25 97/113/25 104/120/25
f 63/79/28 111/127/28 112/128/28
f 55/71/25 56/72/25 104/120/25
f 57/73/28 64/80/28 112/128/28
f 93/109/30 118/134/30 115/131/30
f 92/108/28 117/133/28 118/134/28
f 101/117/25 120/136/25 119/135/25
f 108/124/28 107/123/28 122/138/28
f 84/100/25 85/101/25 115/131/25
f 109/125/30 124/140/30 121/137/30
f 83/99/29 113/129/29 116/132/29
f 108/124/28 123/139/28 124/140/28
usemtl Material.003
f 7/7/1 24/31/1 8/8/1
f 15/15/2 32/47/2 16/16/2
f 8/8/3 25/33/3 9/9/3
f 1/1/4 18/19/4 2/2/4
f 16/16/5 17/17/5 1/1/5
f 9/9/6 26/35/6 10/10/6
f 2/2/7 19/21/7 3/3/7
f 10/10/8 27/37/8 11/11/8
f 3/3/9 20/23/9 4/4/9
f 11/11/10 28/39/10 12/12/10
f 4/4/11 21/25/11 5/5/11
f 12/12/12 29/41/12 13/13/12
f 5/5/13 22/27/13 6/6/13
f 13/13/14 30/43/14 14/14/14
f 6/6/15 23/29/15 7/7/15
f 14/14/16 31/45/16 15/15/16
f 7/7/1 23/29/1 24/31/1
f 15/15/2 31/45/2 32/47/2
f 8/8/3 24/31/3 25/33/3
f 1/1/4 17/17/4 18/19/4
f 16/16/5 32/47/5 17/17/5
f 9/9/6 25/33/6 26/35/6
f 2/2/7 18/19/7 19/21/7
f 10/10/8 26/35/8 27/37/8
f 3/3/9 19/21/9 20/23/9
f 11/11/10 27/37/10 28/39/10
f 4/4/11 20/23/11 21/25/11
f 12/12/12 28/39/12 29/41/12
f 5/5/13 21/25/13 22/27/13
f 13/13/14 29/41/14 30/43/14
f 6/6/15 22/27/15 23/29/15
f 14/14/16 30/43/16 31/45/16
usemtl Material.004
f 27/38/17 23/30/17 19/22/17
f 19/22/17 18/20/17 17/18/17
f 17/18/17 32/48/17 31/46/17
f 31/46/17 30/44/17 29/42/17
f 29/42/17 28/40/17 27/38/17
f 27/38/17 26/36/17 25/34/17
f 25/34/17 24/32/17 23/30/17
f 23/30/17 22/28/17 21/26/17
f 21/26/17 20/24/17 19/22/17
f 19/22/17 17/18/17 31/46/17
f 31/46/17 29/42/17 27/38/17
f 27/38/17 25/34/17 23/30/17
f 23/30/17 21/26/17 19/22/17
f 19/22/17 31/46/17 27/38/17
